<svg xmlns="http://www.w3.org/2000/svg" version="1.1" xmlns:xlink="http://www.w3.org/1999/xlink" xmlns:svgjs="http://svgjs.dev/svgjs" width="1500" height="325" viewBox="0 0 1500 325"><g transform="matrix(1,0,0,1,-0.9090909090909918,0.10375419079770154)"><svg viewBox="0 0 396 86" data-background-color="#000000" preserveAspectRatio="xMidYMid meet" height="325" width="1500" xmlns="http://www.w3.org/2000/svg" xmlns:xlink="http://www.w3.org/1999/xlink"><g id="tight-bounds" transform="matrix(1,0,0,1,0.2400000000000091,-0.02745495510339424)"><svg viewBox="0 0 395.52 86.0549099102068" height="86.0549099102068" width="395.52"><g><svg viewBox="0 0 550.7018952065081 119.81847183296976" height="86.0549099102068" width="395.52"><g></g><g transform="matrix(1,0,0,1,155.1818952065081,0.2980559000820051)"><svg viewBox="0 0 395.52 119.22236003280575" height="119.22236003280575" width="395.52"><g id="textblocktransform"><svg viewBox="0 0 395.52 119.22236003280575" height="119.22236003280575" width="395.52" id="textblock"><g><svg viewBox="0 0 395.52 80.89158487456807" height="80.89158487456807" width="395.52"><g transform="matrix(1,0,0,1,0,0)"><svg width="395.52" viewBox="0.809090909090909 -36.4 182.8572248803591 37.4" height="80.89158487456807" data-palette-color="url(#42bb1cb8-271a-47d5-bcb6-ac1961bf31de)"></svg></g></svg></g><g transform="matrix(1,0,0,1,0,99.9881466654166)"><svg viewBox="0 0 232.209792 19.234213367389152" height="19.234213367389152" width="232.209792"><g transform="matrix(1,0,0,1,0,0)"><svg width="232.209792" viewBox="-0.65 -37.8 555.9 46.05" height="19.234213367389152" data-palette-color="url(#54d8f1ae-13b4-499e-8e79-e5a2098bfde9)"></svg></g></svg></g></svg></g></svg></g><g transform="matrix(1,0,0,1,0,0.2980559000820051)"><svg viewBox="0 0 109.69388502070689 119.22236003280575" height="119.22236003280575" width="109.69388502070689"><g><svg xmlns="http://www.w3.org/2000/svg" data-name="Layer 1" viewBox="4.93 1.0402409194083329 90.1306310853582 97.95975908059167" x="0" y="0" height="119.22236003280575" width="109.69388502070689" class="icon-icon-0" data-fill-palette-color="accent" id="icon-0"></svg></g></svg></g></svg></g><defs></defs><mask id="804f608e-6371-41b2-8dae-9545d90eb6dd"><g id="SvgjsG3469"><svg viewBox="0 0 395.52 86.0549099102068" height="86.0549099102068" width="395.52"><g><svg viewBox="0 0 550.7018952065081 119.81847183296976" height="86.0549099102068" width="395.52"><g><rect width="7.29488660410414" height="119.81847183296976" x="128.79044681155543" y="0" fill="white" opacity="1" stroke-width="0" stroke="transparent" fill-opacity="1" class="rect-yte-0" rx="1%" id="SvgjsRect3468" data-palette-color="url(#42bb1cb8-271a-47d5-bcb6-ac1961bf31de)"></rect></g><g transform="matrix(1,0,0,1,155.1818952065081,0.2980559000820051)"><svg viewBox="0 0 395.52 119.22236003280575" height="119.22236003280575" width="395.52"><g id="SvgjsG3467"><svg viewBox="0 0 395.52 119.22236003280575" height="119.22236003280575" width="395.52" id="SvgjsSvg3466"><g><svg viewBox="0 0 395.52 80.89158487456807" height="80.89158487456807" width="395.52"><g transform="matrix(1,0,0,1,0,0)"><svg width="395.52" viewBox="0.809090909090909 -36.4 182.8572248803591 37.4" height="80.89158487456807" data-palette-color="url(#42bb1cb8-271a-47d5-bcb6-ac1961bf31de)"><path d="M9.75-25.05L9.6-21.65 9.65-21.6Q11.95-24 14.35-24.9 16.75-25.8 18.55-25.8L18.55-25.8Q21-25.8 22.7-24.73 24.4-23.65 25.1-21.6L25.1-21.6Q27.25-24 29.35-24.9 31.45-25.8 33.55-25.8L33.55-25.8Q36.8-25.8 38.68-23.95 40.55-22.1 40.55-18.55L40.55-18.55 40.6-2.5 44.1-1.5Q44.25-0.55 43.85 0.25L43.85 0.25Q42.5 0.15 41 0.08 39.5 0 38.1 0L38.1 0Q36.7 0 35.15 0.08 33.6 0.15 32.2 0.25L32.2 0.25Q32.05-0.7 32.3-1.5L32.3-1.5Q33.3-1.7 34.08-1.95 34.85-2.2 35.6-2.5L35.6-2.5 35.6-16.3Q35.6-19.7 34.55-20.95 33.5-22.2 31.2-22.2L31.2-22.2Q30.1-22.2 28.6-21.48 27.1-20.75 25.55-18.95L25.55-18.95 25.55-18.55 25.6-2.5 29.1-1.5Q29.25-0.55 28.85 0.25L28.85 0.25Q27.5 0.15 26 0.08 24.5 0 23.1 0L23.1 0Q21.7 0 20.15 0.08 18.6 0.15 17.2 0.25L17.2 0.25Q17.05-0.7 17.3-1.5L17.3-1.5Q18.3-1.7 19.07-1.95 19.85-2.2 20.6-2.5L20.6-2.5 20.6-16.3Q20.6-19.7 19.55-21 18.5-22.3 16.2-22.3L16.2-22.3Q15-22.3 13.38-21.58 11.75-20.85 10-19.3L10-19.3 10-2.5 13.35-1.5Q13.5-0.55 13.1 0.25L13.1 0.25Q11.75 0.15 10.33 0.08 8.9 0 7.5 0L7.5 0Q6.1 0 4.45 0.08 2.8 0.15 1.4 0.25L1.4 0.25Q1.25-0.7 1.5-1.5L1.5-1.5Q2.4-1.75 3.3-1.98 4.2-2.2 5-2.5L5-2.5 5-22 0.85-22.4Q0.7-23.4 1.1-24.15L1.1-24.15Q2.95-24.45 4.7-24.8 6.45-25.15 8.05-25.5L8.05-25.5Q8.9-25.45 9.75-25.05L9.75-25.05ZM46.35-12.5L46.35-12.5Q46.35-16.4 47.87-19.45 49.4-22.5 52.25-24.25 55.1-26 58.95-26L58.95-26Q62.85-26 65.67-24.25 68.5-22.5 70.02-19.45 71.55-16.4 71.55-12.5L71.55-12.5Q71.55-8.5 70.02-5.45 68.5-2.4 65.67-0.7 62.85 1 58.95 1L58.95 1Q55.1 1 52.25-0.7 49.4-2.4 47.87-5.45 46.35-8.5 46.35-12.5ZM66.15-11.8L66.15-11.8Q66.15-15.15 65.4-17.88 64.65-20.6 63.05-22.23 61.45-23.85 58.85-23.85L58.85-23.85Q56.2-23.85 54.62-22.25 53.05-20.65 52.4-18 51.75-15.35 51.75-12.15L51.75-12.15Q51.75-9.25 52.5-6.73 53.25-4.2 54.87-2.68 56.5-1.15 59.05-1.15L59.05-1.15Q61.75-1.15 63.3-2.65 64.85-4.15 65.5-6.6 66.15-9.05 66.15-11.8ZM83.1-25.05L82.95-21.65 83-21.6Q85.4-24 87.95-24.9 90.5-25.8 92.4-25.8L92.4-25.8Q95.65-25.8 97.52-23.95 99.4-22.1 99.4-18.55L99.4-18.55 99.45-2.5 102.95-1.5Q103.1-0.55 102.7 0.25L102.7 0.25Q101.35 0.15 99.85 0.08 98.35 0 96.95 0L96.95 0Q95.55 0 94 0.08 92.45 0.15 91.05 0.25L91.05 0.25Q90.9-0.7 91.15-1.5L91.15-1.5Q92.15-1.7 92.92-1.95 93.7-2.2 94.45-2.5L94.45-2.5 94.45-16.3Q94.45-19.7 93.4-21 92.35-22.3 90.05-22.3L90.05-22.3Q88.2-22.3 86.45-21.58 84.7-20.85 83.35-19.3L83.35-19.3 83.35-2.5 86.7-1.5Q86.85-0.55 86.45 0.25L86.45 0.25Q85.1 0.15 83.67 0.08 82.25 0 80.85 0L80.85 0Q79.45 0 77.8 0.08 76.15 0.15 74.75 0.25L74.75 0.25Q74.6-0.7 74.85-1.5L74.85-1.5Q75.75-1.75 76.65-1.98 77.55-2.2 78.35-2.5L78.35-2.5 78.35-22 74.2-22.4Q74.05-23.4 74.45-24.15L74.45-24.15Q76.3-24.45 78.05-24.8 79.8-25.15 81.4-25.5L81.4-25.5Q82.25-25.45 83.1-25.05L83.1-25.05ZM113.69-24.95L113.69-2.5 117.04-1.5Q117.19-0.55 116.79 0.25L116.79 0.25Q115.44 0.15 114.02 0.08 112.59 0 111.19 0L111.19 0Q109.79 0 108.14 0.08 106.49 0.15 105.09 0.25L105.09 0.25Q104.94-0.7 105.19-1.5L105.19-1.5Q106.14-1.75 107.07-1.95 107.99-2.15 108.69-2.5L108.69-2.5 108.69-22 104.54-22.4Q104.39-23.4 104.79-24.15L104.79-24.15Q106.59-24.4 108.42-24.75 110.24-25.1 111.79-25.5L111.79-25.5Q112.29-25.45 112.74-25.33 113.19-25.2 113.69-24.95L113.69-24.95ZM110.34-30.05L110.34-30.05Q109.49-30.05 108.79-30.6 108.09-31.15 107.69-31.95 107.29-32.75 107.29-33.45L107.29-33.45Q107.29-34.1 107.84-34.77 108.39-35.45 109.22-35.93 110.04-36.4 110.84-36.4L110.84-36.4Q111.74-36.4 112.44-35.83 113.14-35.25 113.52-34.48 113.89-33.7 113.89-33L113.89-33Q113.89-32.35 113.37-31.65 112.84-30.95 112.02-30.5 111.19-30.05 110.34-30.05ZM128.14 0.8L128.14 0.8Q126.54 0.8 125.24 0.2 123.94-0.4 123.22-1.88 122.49-3.35 122.49-5.95L122.49-5.95 122.49-21.9 118.99-21.9Q118.69-22.45 118.67-23.03 118.64-23.6 118.74-24.15L118.74-24.15Q120.84-24.15 121.89-24.7 122.94-25.25 123.52-26.6 124.09-27.95 124.74-30.25L124.74-30.25 127.39-30.25 127.39-24.65 132.64-24.65Q133.34-23.2 132.64-21.9L132.64-21.9 127.39-21.9 127.39-7.2Q127.39-4.9 127.62-3.73 127.84-2.55 128.39-2.13 128.94-1.7 129.89-1.7L129.89-1.7Q130.69-1.7 131.44-2 132.19-2.3 132.89-2.7L132.89-2.7Q133.59-2.25 133.64-1.2L133.64-1.2Q133.09-0.55 131.64 0.13 130.19 0.8 128.14 0.8ZM135.94-12.5L135.94-12.5Q135.94-16.4 137.46-19.45 138.99-22.5 141.84-24.25 144.69-26 148.54-26L148.54-26Q152.44-26 155.26-24.25 158.09-22.5 159.61-19.45 161.14-16.4 161.14-12.5L161.14-12.5Q161.14-8.5 159.61-5.45 158.09-2.4 155.26-0.7 152.44 1 148.54 1L148.54 1Q144.69 1 141.84-0.7 138.99-2.4 137.46-5.45 135.94-8.5 135.94-12.5ZM155.74-11.8L155.74-11.8Q155.74-15.15 154.99-17.88 154.24-20.6 152.64-22.23 151.04-23.85 148.44-23.85L148.44-23.85Q145.79-23.85 144.21-22.25 142.64-20.65 141.99-18 141.34-15.35 141.34-12.15L141.34-12.15Q141.34-9.25 142.09-6.73 142.84-4.2 144.46-2.68 146.09-1.15 148.64-1.15L148.64-1.15Q151.34-1.15 152.89-2.65 154.44-4.15 155.09-6.6 155.74-9.05 155.74-11.8ZM172.94-16.85L172.94-2.5 177.79-1.5Q177.94-0.55 177.54 0.25L177.54 0.25Q176.64 0.2 175.31 0.15 173.99 0.1 172.69 0.05 171.39 0 170.44 0L170.44 0Q169.04 0 167.39 0.08 165.74 0.15 164.34 0.25L164.34 0.25Q164.19-0.7 164.44-1.5L164.44-1.5Q165.39-1.75 166.31-1.95 167.24-2.15 167.94-2.5L167.94-2.5 167.94-22 163.79-22.4Q163.64-23.4 164.04-24.15L164.04-24.15Q165.84-24.4 167.66-24.75 169.49-25.1 171.04-25.5L171.04-25.5Q171.54-25.45 171.86-25.33 172.19-25.2 172.69-24.95L172.69-24.95 172.69-20.4 172.74-20.35Q174.29-22.65 176.21-24.25 178.14-25.85 180.34-25.85L180.34-25.85Q181.19-25.85 182.01-25.73 182.84-25.6 183.64-25.1L183.64-25.1Q183.74-23.05 183.46-21.2 183.19-19.35 182.64-17.6L182.64-17.6Q182.29-17.55 181.54-17.57 180.79-17.6 180.39-17.8L180.39-17.8 179.69-22.8Q177.94-22.8 176.16-21.53 174.39-20.25 172.94-16.85L172.94-16.85Z" opacity="1" transform="matrix(1,0,0,1,0,0)" fill="white" class="wordmark-text-0" id="SvgjsPath3465"></path></svg></g></svg></g><g transform="matrix(1,0,0,1,0,99.9881466654166)"><svg viewBox="0 0 232.209792 19.234213367389152" height="19.234213367389152" width="232.209792"><g transform="matrix(1,0,0,1,0,0)"><svg width="232.209792" viewBox="-0.65 -37.8 555.9 46.05" height="19.234213367389152" data-palette-color="url(#54d8f1ae-13b4-499e-8e79-e5a2098bfde9)"><path d="M18.75-15.8L19.1-6.5 19.5-2.5 23.55-1.5 23.3 0.5 16.7 0 10 0.5 10.1-1.5 14.05-2.4 14.3-6.45 14.45-14.55 5.85-29.1 2.85-32.6-0.65-33.5-0.4-35.5 6.15-35 13.15-35.5 13.05-33.5 9.45-32.7 10.9-29.15 14.7-22.7 17.25-17.9 17.45-17.9 19.9-22.25 24.2-29.25 25.5-32.9 21.9-33.5 22.15-35.5 27.8-35 33.15-35.5 33.05-33.5 29.4-32.7 26.85-29.15 18.75-15.8ZM36.35-4.55L34.7-9.5 34.7-16.05 37.65-22 43.3-25.75 50.15-26 56.4-22.25 59.65-16.25 59.05-7.1 55.35-1.2 47.6 1 41.1-0.25 36.35-4.55ZM43.35-23.2L40.2-17.75 39.95-12.15 40.55-6.35 42.7-2.6 48-1.3 52.9-3.45 54.35-11.25 53.85-17.75 52-21.9 48.35-23.75 43.35-23.2ZM71-24.95L70.7-17.25 70.7-6.35 72.05-3.05 76.25-2.5 81.7-5.75 81.7-11.05 81.65-17.3 81.4-22.5 77.84-22.35 77.59-24.1 84.5-25.45 87-24.9 86.65-18.1 86.59-14.1 86.7-11.05 86.7-2.05 90.2-1.05 89.95 0.7 83.09 0.7 81.95-3.5 76.3 0.65 71.2 1 66.59-2.15 65.84-6.15 65.89-16.85 65.39-22.55 61.84-22.4 61.59-24.15 68.5-25.5 71-24.95ZM101.34-24.95L101.14-20.9 101.34-20.9 104.44-24.45 107.84-25.95 111.59-25 110.74-17.55 108.99-17.9 107.74-23.05 104.49-22 100.94-17.85 100.69-13.15 100.84-8.3 101.04-2.5 106.04-1.5 105.79 0.25 98.54 0 92.44 0.25 92.54-1.5 95.84-2.5 96.09-7.75 95.99-17.35 95.74-22.55 92.19-22.4 91.94-24.15 98.84-25.5 101.34-24.95ZM132.79-35L141.29-35 147.09-34.25 151.79-29.5 151.79-24.8 149.09-20.75 144.39-18.8 144.39-18.7 149.49-17.6 153.19-13.8 154.14-10.2 152.24-3.55 147.24-0.65 141.09 0.25 133.04 0 126.19 0.5 126.29-1.25 130.29-2.5 130.79-17.85 130.29-32.5 126.19-33.7 126.44-35.45 132.79-35ZM135.04-19.35L141.04-19.6 146.24-22.35 146.79-27.8 144.24-31.95 141.24-32.75 135.39-32.6 135.04-19.35ZM144.84-2.75L148.64-6.75 147.94-14.15 144.54-16.55 141.04-17.1 135.04-17.1 135.54-2.25 141.29-2 144.84-2.75ZM166.54-24.95L166.34-20.9 166.54-20.9 169.64-24.45 173.04-25.95 176.79-25 175.94-17.55 174.19-17.9 172.94-23.05 169.69-22 166.14-17.85 165.89-13.15 166.04-8.3 166.24-2.5 171.24-1.5 170.99 0.25 163.74 0 157.64 0.25 157.74-1.5 161.04-2.5 161.29-7.75 161.19-17.35 160.94-22.55 157.39-22.4 157.14-24.15 164.04-25.5 166.54-24.95ZM198.18-19.8L198.23-9.1 198.58-2.05 202.03-1.55 201.68 0.1 194.73 0.7 194.08-2.25 193.83-2.25 188.88 0.7 183.68 0.7 180.18-1.85 179.13-6.75 181.33-10.65 187.33-13.25 193.93-13.5 193.73-19.75 192.78-22.85 188.73-24 183.88-22.85 183.73-17.55 181.78-17.15 180.48-24 186.23-25.7 192.68-26 196.58-24.1 198.18-19.8ZM183.98-6.85L185.33-2.8 189.08-1.85 194.13-4.75 193.93-11.5 189.58-11.5 185.73-9.95 183.98-6.85ZM228.43-8.3L228.83-2.45 232.38-1.5 232.13 0.25 226.23 0 220.13 0.25 220.23-1.5 223.53-2.5 223.88-7.75 223.68-18.65 222.33-21.95 218.08-22.7 212.63-19.9 212.53-18.15 212.23-13.15 212.33-8.3 212.58-2.5 216.23-1.5 215.98 0.25 210.08 0 203.98 0.25 204.08-1.5 207.38-2.5 207.73-7.75 207.28-22.55 203.73-22.4 203.48-24.15 210.38-25.5 212.88-24.95 212.73-22.4 218.08-25.65 223.18-26 227.78-22.85 228.53-18.85 228.43-8.3ZM253.83 0.7L252.88-2.25 252.63-2.25 247.08 1 241.53 0.4 237.88-2.2 234.98-8.15 234.93-16.65 236.83-20.6 242.58-25.25 248.13-26 252.98-24.75 252.68-34.3 248.53-34.7 248.78-36.45 255.68-37.8 257.68-37.25 257.33-17.9 257.68-2.05 261.13-1.55 260.78 0.1 253.83 0.7ZM241.23-4.6L245.53-1.55 252.88-4.35 252.98-22 247.43-23.75 244.28-22.85 240.43-18.75 239.73-13 241.23-4.6ZM264.28-2.65L265.43-4.5 267.73-5.4 270.03-4.45 271.18-2.9 271.63 0.05 270.43 4.9 267.28 8.25 265.98 6.85 268.43 3.95 268.53 0.75 266.28 0.75 264.73-0.55 264.28-2.65ZM304.37-15.8L304.72-6.5 305.12-2.5 309.17-1.5 308.92 0.5 302.32 0 295.62 0.5 295.72-1.5 299.67-2.4 299.92-6.45 300.07-14.55 291.47-29.1 288.47-32.6 284.97-33.5 285.22-35.5 291.77-35 298.77-35.5 298.67-33.5 295.07-32.7 296.52-29.15 300.32-22.7 302.87-17.9 303.07-17.9 305.52-22.25 309.82-29.25 311.12-32.9 307.52-33.5 307.77-35.5 313.42-35 318.77-35.5 318.67-33.5 315.02-32.7 312.47-29.15 304.37-15.8ZM321.97-4.55L320.32-9.5 320.32-16.05 323.27-22 328.92-25.75 335.77-26 342.02-22.25 345.27-16.25 344.67-7.1 340.97-1.2 333.22 1 326.72-0.25 321.97-4.55ZM328.97-23.2L325.82-17.75 325.57-12.15 326.17-6.35 328.32-2.6 333.62-1.3 338.52-3.45 339.97-11.25 339.47-17.75 337.62-21.9 333.97-23.75 328.97-23.2ZM356.62-24.95L356.32-17.25 356.32-6.35 357.67-3.05 361.87-2.5 367.32-5.75 367.32-11.05 367.27-17.3 367.02-22.5 363.47-22.35 363.22-24.1 370.12-25.45 372.62-24.9 372.27-18.1 372.22-14.1 372.32-11.05 372.32-2.05 375.82-1.05 375.57 0.7 368.72 0.7 367.57-3.5 361.92 0.65 356.82 1 352.22-2.15 351.47-6.15 351.52-16.85 351.02-22.55 347.47-22.4 347.22-24.15 354.12-25.5 356.62-24.95ZM386.96-24.95L386.76-20.9 386.96-20.9 390.06-24.45 393.46-25.95 397.21-25 396.36-17.55 394.61-17.9 393.36-23.05 390.11-22 386.56-17.85 386.31-13.15 386.46-8.3 386.66-2.5 391.66-1.5 391.41 0.25 384.16 0 378.06 0.25 378.16-1.5 381.46-2.5 381.71-7.75 381.61-17.35 381.36-22.55 377.81-22.4 377.56-24.15 384.46-25.5 386.96-24.95ZM425.71-14L420.66-14.6 421.16-2.5 426.01-1.5 425.76 0.5 418.66 0 411.81 0.5 411.91-1.5 416.06-2.5 416.41-15.3 416.16-32.5 412.06-33.5 412.31-35.5 418.41-35 425.11-35.55 429.21-35.25 433.26-33.95 437.21-30.95 438.46-25.8 437.56-20.25 434.51-16.75 425.71-14ZM428.31-33.2L421.01-32.75 420.71-16.8 425.11-16.25 431.86-19.1 433.31-24.75 432.26-29.35 428.31-33.2ZM443.16-4.55L441.51-9.5 441.51-16.05 444.46-22 450.11-25.75 456.96-26 463.21-22.25 466.46-16.25 465.86-7.1 462.16-1.2 454.41 1 447.91-0.25 443.16-4.55ZM450.16-23.2L447.01-17.75 446.76-12.15 447.36-6.35 449.51-2.6 454.81-1.3 459.71-3.45 461.16-11.25 460.66-17.75 458.81-21.9 455.16-23.75 450.16-23.2ZM481.35 1.5L474.05-18.2 471.8-22.6 468.45-23.5 468.7-25.25 474.8-25 480.9-25.25 480.8-23.5 477.4-22.5 478.2-19.6 480.9-11.25 482.9-3.95 483.05-3.95 484.4-9.05 488.2-19.8 486.8-22.6 483.45-23.5 483.7-25.25 489.8-25 495.9-25.25 495.8-23.5 492.4-22.5 493.2-19.6 495.6-11.25 497.6-3.95 497.75-3.95 499.1-9.05 502.6-19.45 503.4-22.65 499.5-23.5 499.75-25.25 504.65-25 509.95-25.25 509.85-23.5 506.75-22.5 504.6-17.9 499.25-1.45 497.7 1.15 496.05 1.5 489.65-16.4 484.55-1.45 483 1.15 481.35 1.5ZM525.55-12.9L516.9-13.45 516.85-13 518.2-5.95 522.15-2.05 526.75-1.55 531.45-4.05 532.35-2.75 528.4 0.4 523.7 1 518.8-0.15 514.55-3.7 512-11.2 512.85-17.9 515.45-22.6 520.7-25.5 525.1-26.05 528.6-24.95 531.3-22.5 532.85-18.05 532.9-13.9 532.2-13.35 525.55-12.9ZM523.2-23.8L519.4-21.55 517.45-17.75 517.15-15.5 524.75-15.4 528.2-16.15 527.9-20.8 526.4-23.35 523.2-23.8ZM545-24.95L544.8-20.9 545-20.9 548.1-24.45 551.5-25.95 555.25-25 554.4-17.55 552.65-17.9 551.4-23.05 548.15-22 544.6-17.85 544.35-13.15 544.5-8.3 544.7-2.5 549.7-1.5 549.45 0.25 542.2 0 536.1 0.25 536.2-1.5 539.5-2.5 539.75-7.75 539.65-17.35 539.4-22.55 535.85-22.4 535.6-24.15 542.5-25.5 545-24.95Z" opacity="1" transform="matrix(1,0,0,1,0,0)" fill="black" class="slogan-text-1" id="SvgjsPath3464"></path></svg></g></svg></g></svg></g></svg></g><g transform="matrix(1,0,0,1,0,0.2980559000820051)"><svg viewBox="0 0 109.69388502070689 119.22236003280575" height="119.22236003280575" width="109.69388502070689"><g><svg xmlns="http://www.w3.org/2000/svg" data-name="Layer 1" viewBox="4.93 1.0402409194083329 90.1306310853582 97.95975908059167" x="0" y="0" height="119.22236003280575" width="109.69388502070689" class="icon-icon-0" data-fill-palette-color="accent" id="SvgjsSvg3463"><path d="M54.52 93.52H29.94L24.47 99 4.93 80 18.92 66A21.34 21.34 0 0 1 41 61L44.07 62.08H63A6 6 0 0 1 69 68.22 6.12 6.12 0 0 1 62.76 74H51.4A2.31 2.31 0 0 0 51.4 78.63H62.76A10.8 10.8 0 0 0 73.59 68.41S73.59 68.31 73.59 68.27L84.09 56.45A6.36 6.36 0 0 1 92.82 55.6 6.19 6.19 0 0 1 93.54 64.43L72.54 88.43A14.72 14.72 0 0 1 61.45 93.43ZM81.18 38.78A6 6 0 0 0 81.49 40.7 6 6 0 0 1 75.75 48.61 6 6 0 0 0 70 52.81 6 6 0 0 1 60.71 55.81 6 6 0 0 0 53.56 55.81 6 6 0 0 1 44.27 52.81 6 6 0 0 0 38.48 48.61 6 6 0 0 1 32.74 40.7 6 6 0 0 0 30.53 33.9 6 6 0 0 1 30.53 24.13 6 6 0 0 0 32.74 17.33 6 6 0 0 1 38.48 9.42 6 6 0 0 0 44.27 5.22 6 6 0 0 1 53.56 2.22 6 6 0 0 0 60.71 2.22 6 6 0 0 1 70 5.22 6 6 0 0 0 75.79 9.42 6 6 0 0 1 81.53 17.33 6 6 0 0 0 83.74 24.13 6 6 0 0 1 83.74 33.9 6 6 0 0 0 81.18 38.78M65.4 22.57A3.34 3.34 0 0 0 60.68 22.57L54.89 28.36 53.51 27A3.34 3.34 0 0 0 48.79 31.72L50.17 33.1 52.53 35.46A3.34 3.34 0 0 0 57.25 35.46L59.61 33.1 65.4 27.31A3.34 3.34 0 0 0 65.4 22.57" fill="black"></path></svg></g></svg></g></svg></g><defs><mask></mask></defs></svg><rect width="395.52" height="86.0549099102068" fill="black" stroke="none" visibility="hidden"></rect></g></mask><linearGradient x1="0.054" x2="0.941" y1="0.5" y2="0.5" id="42bb1cb8-271a-47d5-bcb6-ac1961bf31de"><stop stop-color="#8c8c8c" offset="0"></stop><stop stop-color="#e3e4e5" offset="0.498"></stop><stop stop-color="#8c8c8c" offset="1"></stop></linearGradient><rect width="395.52" height="86.0549099102068" fill="url(#42bb1cb8-271a-47d5-bcb6-ac1961bf31de)" mask="url(#804f608e-6371-41b2-8dae-9545d90eb6dd)" data-fill-palette-color="primary"></rect><mask id="09ba8547-7cd7-4bf2-8ac4-3df5d5857fcb"><g id="SvgjsG3481"><svg viewBox="0 0 395.52 86.0549099102068" height="86.0549099102068" width="395.52"><g><svg viewBox="0 0 550.7018952065081 119.81847183296976" height="86.0549099102068" width="395.52"><g></g><g transform="matrix(1,0,0,1,155.1818952065081,0.2980559000820051)"><svg viewBox="0 0 395.52 119.22236003280575" height="119.22236003280575" width="395.52"><g id="SvgjsG3480"><svg viewBox="0 0 395.52 119.22236003280575" height="119.22236003280575" width="395.52" id="SvgjsSvg3479"><g><svg viewBox="0 0 395.52 80.89158487456807" height="80.89158487456807" width="395.52"><g transform="matrix(1,0,0,1,0,0)"><svg width="395.52" viewBox="0.809090909090909 -36.4 182.8572248803591 37.4" height="80.89158487456807" data-palette-color="url(#42bb1cb8-271a-47d5-bcb6-ac1961bf31de)"></svg></g></svg></g><g transform="matrix(1,0,0,1,0,99.9881466654166)"><svg viewBox="0 0 232.209792 19.234213367389152" height="19.234213367389152" width="232.209792"><g transform="matrix(1,0,0,1,0,0)"><svg width="232.209792" viewBox="-0.65 -37.8 555.9 46.05" height="19.234213367389152" data-palette-color="url(#54d8f1ae-13b4-499e-8e79-e5a2098bfde9)"><path d="M18.75-15.8L19.1-6.5 19.5-2.5 23.55-1.5 23.3 0.5 16.7 0 10 0.5 10.1-1.5 14.05-2.4 14.3-6.45 14.45-14.55 5.85-29.1 2.85-32.6-0.65-33.5-0.4-35.5 6.15-35 13.15-35.5 13.05-33.5 9.45-32.7 10.9-29.15 14.7-22.7 17.25-17.9 17.45-17.9 19.9-22.25 24.2-29.25 25.5-32.9 21.9-33.5 22.15-35.5 27.8-35 33.15-35.5 33.05-33.5 29.4-32.7 26.85-29.15 18.75-15.8ZM36.35-4.55L34.7-9.5 34.7-16.05 37.65-22 43.3-25.75 50.15-26 56.4-22.25 59.65-16.25 59.05-7.1 55.35-1.2 47.6 1 41.1-0.25 36.35-4.55ZM43.35-23.2L40.2-17.75 39.95-12.15 40.55-6.35 42.7-2.6 48-1.3 52.9-3.45 54.35-11.25 53.85-17.75 52-21.9 48.35-23.75 43.35-23.2ZM71-24.95L70.7-17.25 70.7-6.35 72.05-3.05 76.25-2.5 81.7-5.75 81.7-11.05 81.65-17.3 81.4-22.5 77.84-22.35 77.59-24.1 84.5-25.45 87-24.9 86.65-18.1 86.59-14.1 86.7-11.05 86.7-2.05 90.2-1.05 89.95 0.7 83.09 0.7 81.95-3.5 76.3 0.65 71.2 1 66.59-2.15 65.84-6.15 65.89-16.85 65.39-22.55 61.84-22.4 61.59-24.15 68.5-25.5 71-24.95ZM101.34-24.95L101.14-20.9 101.34-20.9 104.44-24.45 107.84-25.95 111.59-25 110.74-17.55 108.99-17.9 107.74-23.05 104.49-22 100.94-17.85 100.69-13.15 100.84-8.3 101.04-2.5 106.04-1.5 105.79 0.25 98.54 0 92.44 0.25 92.54-1.5 95.84-2.5 96.09-7.75 95.99-17.35 95.74-22.55 92.19-22.4 91.94-24.15 98.84-25.5 101.34-24.95ZM132.79-35L141.29-35 147.09-34.25 151.79-29.5 151.79-24.8 149.09-20.75 144.39-18.8 144.39-18.7 149.49-17.6 153.19-13.8 154.14-10.2 152.24-3.55 147.24-0.65 141.09 0.25 133.04 0 126.19 0.5 126.29-1.25 130.29-2.5 130.79-17.85 130.29-32.5 126.19-33.7 126.44-35.45 132.79-35ZM135.04-19.35L141.04-19.6 146.24-22.35 146.79-27.8 144.24-31.95 141.24-32.75 135.39-32.6 135.04-19.35ZM144.84-2.75L148.64-6.75 147.94-14.15 144.54-16.55 141.04-17.1 135.04-17.1 135.54-2.25 141.29-2 144.84-2.75ZM166.54-24.95L166.34-20.9 166.54-20.9 169.64-24.45 173.04-25.95 176.79-25 175.94-17.55 174.19-17.9 172.94-23.05 169.69-22 166.14-17.85 165.89-13.15 166.04-8.3 166.24-2.5 171.24-1.5 170.99 0.25 163.74 0 157.64 0.25 157.74-1.5 161.04-2.5 161.29-7.75 161.19-17.35 160.94-22.55 157.39-22.4 157.14-24.15 164.04-25.5 166.54-24.95ZM198.18-19.8L198.23-9.1 198.58-2.05 202.03-1.55 201.68 0.1 194.73 0.7 194.08-2.25 193.83-2.25 188.88 0.7 183.68 0.7 180.18-1.85 179.13-6.75 181.33-10.65 187.33-13.25 193.93-13.5 193.73-19.75 192.78-22.85 188.73-24 183.88-22.85 183.73-17.55 181.78-17.15 180.48-24 186.23-25.7 192.68-26 196.58-24.1 198.18-19.8ZM183.98-6.85L185.33-2.8 189.08-1.85 194.13-4.75 193.93-11.5 189.58-11.5 185.73-9.95 183.98-6.85ZM228.43-8.3L228.83-2.45 232.38-1.5 232.13 0.25 226.23 0 220.13 0.25 220.23-1.5 223.53-2.5 223.88-7.75 223.68-18.65 222.33-21.95 218.08-22.7 212.63-19.9 212.53-18.15 212.23-13.15 212.33-8.3 212.58-2.5 216.23-1.5 215.98 0.25 210.08 0 203.98 0.25 204.08-1.5 207.38-2.5 207.73-7.75 207.28-22.55 203.73-22.4 203.48-24.15 210.38-25.5 212.88-24.95 212.73-22.4 218.08-25.65 223.18-26 227.78-22.85 228.53-18.85 228.43-8.3ZM253.83 0.7L252.88-2.25 252.63-2.25 247.08 1 241.53 0.4 237.88-2.2 234.98-8.15 234.93-16.65 236.83-20.6 242.58-25.25 248.13-26 252.98-24.75 252.68-34.3 248.53-34.7 248.78-36.45 255.68-37.8 257.68-37.25 257.33-17.9 257.68-2.05 261.13-1.55 260.78 0.1 253.83 0.7ZM241.23-4.6L245.53-1.55 252.88-4.35 252.98-22 247.43-23.75 244.28-22.85 240.43-18.75 239.73-13 241.23-4.6ZM264.28-2.65L265.43-4.5 267.73-5.4 270.03-4.45 271.18-2.9 271.63 0.05 270.43 4.9 267.28 8.25 265.98 6.85 268.43 3.95 268.53 0.75 266.28 0.75 264.73-0.55 264.28-2.65ZM304.37-15.8L304.72-6.5 305.12-2.5 309.17-1.5 308.92 0.5 302.32 0 295.62 0.5 295.72-1.5 299.67-2.4 299.92-6.45 300.07-14.55 291.47-29.1 288.47-32.6 284.97-33.5 285.22-35.5 291.77-35 298.77-35.5 298.67-33.5 295.07-32.7 296.52-29.15 300.32-22.7 302.87-17.9 303.07-17.9 305.52-22.25 309.82-29.25 311.12-32.9 307.52-33.5 307.77-35.5 313.42-35 318.77-35.5 318.67-33.5 315.02-32.7 312.47-29.15 304.37-15.8ZM321.97-4.55L320.32-9.5 320.32-16.05 323.27-22 328.92-25.75 335.77-26 342.02-22.25 345.27-16.25 344.67-7.1 340.97-1.2 333.22 1 326.72-0.25 321.97-4.55ZM328.97-23.2L325.82-17.75 325.57-12.15 326.17-6.35 328.32-2.6 333.62-1.3 338.52-3.45 339.97-11.25 339.47-17.75 337.62-21.9 333.97-23.75 328.97-23.2ZM356.62-24.95L356.32-17.25 356.32-6.35 357.67-3.05 361.87-2.5 367.32-5.75 367.32-11.05 367.27-17.3 367.02-22.5 363.47-22.35 363.22-24.1 370.12-25.45 372.62-24.9 372.27-18.1 372.22-14.1 372.32-11.05 372.32-2.05 375.82-1.05 375.57 0.7 368.72 0.7 367.57-3.5 361.92 0.65 356.82 1 352.22-2.15 351.47-6.15 351.52-16.85 351.02-22.55 347.47-22.4 347.22-24.15 354.12-25.5 356.62-24.95ZM386.96-24.95L386.76-20.9 386.96-20.9 390.06-24.45 393.46-25.95 397.21-25 396.36-17.55 394.61-17.9 393.36-23.05 390.11-22 386.56-17.85 386.31-13.15 386.46-8.3 386.66-2.5 391.66-1.5 391.41 0.25 384.16 0 378.06 0.25 378.16-1.5 381.46-2.5 381.71-7.75 381.61-17.35 381.36-22.55 377.81-22.4 377.56-24.15 384.46-25.5 386.96-24.95ZM425.71-14L420.66-14.6 421.16-2.5 426.01-1.5 425.76 0.5 418.66 0 411.81 0.5 411.91-1.5 416.06-2.5 416.41-15.3 416.16-32.5 412.06-33.5 412.31-35.5 418.41-35 425.11-35.55 429.21-35.25 433.26-33.95 437.21-30.95 438.46-25.8 437.56-20.25 434.51-16.75 425.71-14ZM428.31-33.2L421.01-32.75 420.71-16.8 425.11-16.25 431.86-19.1 433.31-24.75 432.26-29.35 428.31-33.2ZM443.16-4.55L441.51-9.5 441.51-16.05 444.46-22 450.11-25.75 456.96-26 463.21-22.25 466.46-16.25 465.86-7.1 462.16-1.2 454.41 1 447.91-0.25 443.16-4.55ZM450.16-23.2L447.01-17.75 446.76-12.15 447.36-6.35 449.51-2.6 454.81-1.3 459.71-3.45 461.16-11.25 460.66-17.75 458.81-21.9 455.16-23.75 450.16-23.2ZM481.35 1.5L474.05-18.2 471.8-22.6 468.45-23.5 468.7-25.25 474.8-25 480.9-25.25 480.8-23.5 477.4-22.5 478.2-19.6 480.9-11.25 482.9-3.95 483.05-3.95 484.4-9.05 488.2-19.8 486.8-22.6 483.45-23.5 483.7-25.25 489.8-25 495.9-25.25 495.8-23.5 492.4-22.5 493.2-19.6 495.6-11.25 497.6-3.95 497.75-3.95 499.1-9.05 502.6-19.45 503.4-22.65 499.5-23.5 499.75-25.25 504.65-25 509.95-25.25 509.85-23.5 506.75-22.5 504.6-17.9 499.25-1.45 497.7 1.15 496.05 1.5 489.65-16.4 484.55-1.45 483 1.15 481.35 1.5ZM525.55-12.9L516.9-13.45 516.85-13 518.2-5.95 522.15-2.05 526.75-1.55 531.45-4.05 532.35-2.75 528.4 0.4 523.7 1 518.8-0.15 514.55-3.7 512-11.2 512.85-17.9 515.45-22.6 520.7-25.5 525.1-26.05 528.6-24.95 531.3-22.5 532.85-18.05 532.9-13.9 532.2-13.35 525.55-12.9ZM523.2-23.8L519.4-21.55 517.45-17.75 517.15-15.5 524.75-15.4 528.2-16.15 527.9-20.8 526.4-23.35 523.2-23.8ZM545-24.95L544.8-20.9 545-20.9 548.1-24.45 551.5-25.95 555.25-25 554.4-17.55 552.65-17.9 551.4-23.05 548.15-22 544.6-17.85 544.35-13.15 544.5-8.3 544.7-2.5 549.7-1.5 549.45 0.25 542.2 0 536.1 0.25 536.2-1.5 539.5-2.5 539.75-7.75 539.65-17.35 539.4-22.55 535.85-22.4 535.6-24.15 542.5-25.5 545-24.95Z" opacity="1" transform="matrix(1,0,0,1,0,0)" fill="white" class="slogan-text-1" id="SvgjsPath3478"></path></svg></g></svg></g></svg></g></svg></g><g transform="matrix(1,0,0,1,0,0.2980559000820051)"><svg viewBox="0 0 109.69388502070689 119.22236003280575" height="119.22236003280575" width="109.69388502070689"><g><svg xmlns="http://www.w3.org/2000/svg" data-name="Layer 1" viewBox="4.93 1.0402409194083329 90.1306310853582 97.95975908059167" x="0" y="0" height="119.22236003280575" width="109.69388502070689" class="icon-icon-0" data-fill-palette-color="accent" id="SvgjsSvg3477"><path d="M54.52 93.52H29.94L24.47 99 4.93 80 18.92 66A21.34 21.34 0 0 1 41 61L44.07 62.08H63A6 6 0 0 1 69 68.22 6.12 6.12 0 0 1 62.76 74H51.4A2.31 2.31 0 0 0 51.4 78.63H62.76A10.8 10.8 0 0 0 73.59 68.41S73.59 68.31 73.59 68.27L84.09 56.45A6.36 6.36 0 0 1 92.82 55.6 6.19 6.19 0 0 1 93.54 64.43L72.54 88.43A14.72 14.72 0 0 1 61.45 93.43ZM81.18 38.78A6 6 0 0 0 81.49 40.7 6 6 0 0 1 75.75 48.61 6 6 0 0 0 70 52.81 6 6 0 0 1 60.71 55.81 6 6 0 0 0 53.56 55.81 6 6 0 0 1 44.27 52.81 6 6 0 0 0 38.48 48.61 6 6 0 0 1 32.74 40.7 6 6 0 0 0 30.53 33.9 6 6 0 0 1 30.53 24.13 6 6 0 0 0 32.74 17.33 6 6 0 0 1 38.48 9.42 6 6 0 0 0 44.27 5.22 6 6 0 0 1 53.56 2.22 6 6 0 0 0 60.71 2.22 6 6 0 0 1 70 5.22 6 6 0 0 0 75.79 9.42 6 6 0 0 1 81.53 17.33 6 6 0 0 0 83.74 24.13 6 6 0 0 1 83.74 33.9 6 6 0 0 0 81.18 38.78M65.4 22.57A3.34 3.34 0 0 0 60.68 22.57L54.89 28.36 53.51 27A3.34 3.34 0 0 0 48.79 31.72L50.17 33.1 52.53 35.46A3.34 3.34 0 0 0 57.25 35.46L59.61 33.1 65.4 27.31A3.34 3.34 0 0 0 65.4 22.57" fill="black"></path></svg></g></svg></g></svg></g><defs><mask></mask></defs><mask><g id="SvgjsG3476"><svg viewBox="0 0 395.52 86.0549099102068" height="86.0549099102068" width="395.52"><g><svg viewBox="0 0 550.7018952065081 119.81847183296976" height="86.0549099102068" width="395.52"><g><rect width="7.29488660410414" height="119.81847183296976" x="128.79044681155543" y="0" fill="black" opacity="1" stroke-width="0" stroke="transparent" fill-opacity="1" class="rect-yte-0" rx="1%" id="SvgjsRect3475" data-palette-color="url(#42bb1cb8-271a-47d5-bcb6-ac1961bf31de)"></rect></g><g transform="matrix(1,0,0,1,155.1818952065081,0.2980559000820051)"><svg viewBox="0 0 395.52 119.22236003280575" height="119.22236003280575" width="395.52"><g id="SvgjsG3474"><svg viewBox="0 0 395.52 119.22236003280575" height="119.22236003280575" width="395.52" id="SvgjsSvg3473"><g><svg viewBox="0 0 395.52 80.89158487456807" height="80.89158487456807" width="395.52"><g transform="matrix(1,0,0,1,0,0)"><svg width="395.52" viewBox="0.809090909090909 -36.4 182.8572248803591 37.4" height="80.89158487456807" data-palette-color="url(#42bb1cb8-271a-47d5-bcb6-ac1961bf31de)"><path d="M9.75-25.05L9.6-21.65 9.65-21.6Q11.95-24 14.35-24.9 16.75-25.8 18.55-25.8L18.55-25.8Q21-25.8 22.7-24.73 24.4-23.65 25.1-21.6L25.1-21.6Q27.25-24 29.35-24.9 31.45-25.8 33.55-25.8L33.55-25.8Q36.8-25.8 38.68-23.95 40.55-22.1 40.55-18.55L40.55-18.55 40.6-2.5 44.1-1.5Q44.25-0.55 43.85 0.25L43.85 0.25Q42.5 0.15 41 0.08 39.5 0 38.1 0L38.1 0Q36.7 0 35.15 0.08 33.6 0.15 32.2 0.25L32.2 0.25Q32.05-0.7 32.3-1.5L32.3-1.5Q33.3-1.7 34.08-1.95 34.85-2.2 35.6-2.5L35.6-2.5 35.6-16.3Q35.6-19.7 34.55-20.95 33.5-22.2 31.2-22.2L31.2-22.2Q30.1-22.2 28.6-21.48 27.1-20.75 25.55-18.95L25.55-18.95 25.55-18.55 25.6-2.5 29.1-1.5Q29.25-0.55 28.85 0.25L28.85 0.25Q27.5 0.15 26 0.08 24.5 0 23.1 0L23.1 0Q21.7 0 20.15 0.08 18.6 0.15 17.2 0.25L17.2 0.25Q17.05-0.7 17.3-1.5L17.3-1.5Q18.3-1.7 19.07-1.95 19.85-2.2 20.6-2.5L20.6-2.5 20.6-16.3Q20.6-19.7 19.55-21 18.5-22.3 16.2-22.3L16.2-22.3Q15-22.3 13.38-21.58 11.75-20.85 10-19.3L10-19.3 10-2.5 13.35-1.5Q13.5-0.55 13.1 0.25L13.1 0.25Q11.75 0.15 10.33 0.08 8.9 0 7.5 0L7.5 0Q6.1 0 4.45 0.08 2.8 0.15 1.4 0.25L1.4 0.25Q1.25-0.7 1.5-1.5L1.5-1.5Q2.4-1.75 3.3-1.98 4.2-2.2 5-2.5L5-2.5 5-22 0.85-22.4Q0.7-23.4 1.1-24.15L1.1-24.15Q2.95-24.45 4.7-24.8 6.45-25.15 8.05-25.5L8.05-25.5Q8.9-25.45 9.75-25.05L9.75-25.05ZM46.35-12.5L46.35-12.5Q46.35-16.4 47.87-19.45 49.4-22.5 52.25-24.25 55.1-26 58.95-26L58.95-26Q62.85-26 65.67-24.25 68.5-22.5 70.02-19.45 71.55-16.4 71.55-12.5L71.55-12.5Q71.55-8.5 70.02-5.45 68.5-2.4 65.67-0.7 62.85 1 58.95 1L58.95 1Q55.1 1 52.25-0.7 49.4-2.4 47.87-5.45 46.35-8.5 46.35-12.5ZM66.15-11.8L66.15-11.8Q66.15-15.15 65.4-17.88 64.65-20.6 63.05-22.23 61.45-23.85 58.85-23.85L58.85-23.85Q56.2-23.85 54.62-22.25 53.05-20.65 52.4-18 51.75-15.35 51.75-12.15L51.75-12.15Q51.75-9.25 52.5-6.73 53.25-4.2 54.87-2.68 56.5-1.15 59.05-1.15L59.05-1.15Q61.75-1.15 63.3-2.65 64.85-4.15 65.5-6.6 66.15-9.05 66.15-11.8ZM83.1-25.05L82.95-21.65 83-21.6Q85.4-24 87.95-24.9 90.5-25.8 92.4-25.8L92.4-25.8Q95.65-25.8 97.52-23.95 99.4-22.1 99.4-18.55L99.4-18.55 99.45-2.5 102.95-1.5Q103.1-0.55 102.7 0.25L102.7 0.25Q101.35 0.15 99.85 0.08 98.35 0 96.95 0L96.95 0Q95.55 0 94 0.08 92.45 0.15 91.05 0.25L91.05 0.25Q90.9-0.7 91.15-1.5L91.15-1.5Q92.15-1.7 92.92-1.95 93.7-2.2 94.45-2.5L94.45-2.5 94.45-16.3Q94.45-19.7 93.4-21 92.35-22.3 90.05-22.3L90.05-22.3Q88.2-22.3 86.45-21.58 84.7-20.85 83.35-19.3L83.35-19.3 83.35-2.5 86.7-1.5Q86.85-0.55 86.45 0.25L86.45 0.25Q85.1 0.15 83.67 0.08 82.25 0 80.85 0L80.85 0Q79.45 0 77.8 0.08 76.15 0.15 74.75 0.25L74.75 0.25Q74.6-0.7 74.85-1.5L74.85-1.5Q75.75-1.75 76.65-1.98 77.55-2.2 78.35-2.5L78.35-2.5 78.35-22 74.2-22.4Q74.05-23.4 74.45-24.15L74.45-24.15Q76.3-24.45 78.05-24.8 79.8-25.15 81.4-25.5L81.4-25.5Q82.25-25.45 83.1-25.05L83.1-25.05ZM113.69-24.95L113.69-2.5 117.04-1.5Q117.19-0.55 116.79 0.25L116.79 0.25Q115.44 0.15 114.02 0.08 112.59 0 111.19 0L111.19 0Q109.79 0 108.14 0.08 106.49 0.15 105.09 0.25L105.09 0.25Q104.94-0.7 105.19-1.5L105.19-1.5Q106.14-1.75 107.07-1.95 107.99-2.15 108.69-2.5L108.69-2.5 108.69-22 104.54-22.4Q104.39-23.4 104.79-24.15L104.79-24.15Q106.59-24.4 108.42-24.75 110.24-25.1 111.79-25.5L111.79-25.5Q112.29-25.45 112.74-25.33 113.19-25.2 113.69-24.95L113.69-24.95ZM110.34-30.05L110.34-30.05Q109.49-30.05 108.79-30.6 108.09-31.15 107.69-31.95 107.29-32.75 107.29-33.45L107.29-33.45Q107.29-34.1 107.84-34.77 108.39-35.45 109.22-35.93 110.04-36.4 110.84-36.4L110.84-36.4Q111.74-36.4 112.44-35.83 113.14-35.25 113.52-34.48 113.89-33.7 113.89-33L113.89-33Q113.89-32.35 113.37-31.65 112.84-30.95 112.02-30.5 111.19-30.05 110.34-30.05ZM128.14 0.8L128.14 0.8Q126.54 0.8 125.24 0.2 123.94-0.4 123.22-1.88 122.49-3.35 122.49-5.95L122.49-5.95 122.49-21.9 118.99-21.9Q118.69-22.45 118.67-23.03 118.64-23.6 118.74-24.15L118.74-24.15Q120.84-24.15 121.89-24.7 122.94-25.25 123.52-26.6 124.09-27.95 124.74-30.25L124.74-30.25 127.39-30.25 127.39-24.65 132.64-24.65Q133.34-23.2 132.64-21.9L132.64-21.9 127.39-21.9 127.39-7.2Q127.39-4.9 127.62-3.73 127.84-2.55 128.39-2.13 128.94-1.7 129.89-1.7L129.89-1.7Q130.69-1.7 131.44-2 132.19-2.3 132.89-2.7L132.89-2.7Q133.59-2.25 133.64-1.2L133.64-1.2Q133.09-0.55 131.64 0.13 130.19 0.8 128.14 0.8ZM135.94-12.5L135.94-12.5Q135.94-16.4 137.46-19.45 138.99-22.5 141.84-24.25 144.69-26 148.54-26L148.54-26Q152.44-26 155.26-24.25 158.09-22.5 159.61-19.45 161.14-16.4 161.14-12.5L161.14-12.5Q161.14-8.5 159.61-5.45 158.09-2.4 155.26-0.7 152.44 1 148.54 1L148.54 1Q144.69 1 141.84-0.7 138.99-2.4 137.46-5.45 135.94-8.5 135.94-12.5ZM155.74-11.8L155.74-11.8Q155.74-15.15 154.99-17.88 154.24-20.6 152.64-22.23 151.04-23.85 148.44-23.85L148.44-23.85Q145.79-23.85 144.21-22.25 142.64-20.65 141.99-18 141.34-15.35 141.34-12.15L141.34-12.15Q141.34-9.25 142.09-6.73 142.84-4.2 144.46-2.68 146.09-1.15 148.64-1.15L148.64-1.15Q151.34-1.15 152.89-2.65 154.44-4.15 155.09-6.6 155.74-9.05 155.74-11.8ZM172.94-16.85L172.94-2.5 177.79-1.5Q177.94-0.55 177.54 0.25L177.54 0.25Q176.64 0.2 175.31 0.15 173.99 0.1 172.69 0.05 171.39 0 170.44 0L170.44 0Q169.04 0 167.39 0.08 165.74 0.15 164.34 0.25L164.34 0.25Q164.19-0.7 164.44-1.5L164.44-1.5Q165.39-1.75 166.31-1.95 167.24-2.15 167.94-2.5L167.94-2.5 167.94-22 163.79-22.4Q163.64-23.4 164.04-24.15L164.04-24.15Q165.84-24.4 167.66-24.75 169.49-25.1 171.04-25.5L171.04-25.5Q171.54-25.45 171.86-25.33 172.19-25.2 172.69-24.95L172.69-24.95 172.69-20.4 172.74-20.35Q174.29-22.65 176.21-24.25 178.14-25.85 180.34-25.85L180.34-25.85Q181.19-25.85 182.01-25.73 182.84-25.6 183.64-25.1L183.64-25.1Q183.74-23.05 183.46-21.2 183.19-19.35 182.64-17.6L182.64-17.6Q182.29-17.55 181.54-17.57 180.79-17.6 180.39-17.8L180.39-17.8 179.69-22.8Q177.94-22.8 176.16-21.53 174.39-20.25 172.94-16.85L172.94-16.85Z" opacity="1" transform="matrix(1,0,0,1,0,0)" fill="black" class="wordmark-text-0" id="SvgjsPath3472"></path></svg></g></svg></g><g transform="matrix(1,0,0,1,0,99.9881466654166)"><svg viewBox="0 0 232.209792 19.234213367389152" height="19.234213367389152" width="232.209792"><g transform="matrix(1,0,0,1,0,0)"><svg width="232.209792" viewBox="-0.65 -37.8 555.9 46.05" height="19.234213367389152" data-palette-color="url(#54d8f1ae-13b4-499e-8e79-e5a2098bfde9)"><path d="M18.75-15.8L19.1-6.5 19.5-2.5 23.55-1.5 23.3 0.5 16.7 0 10 0.5 10.1-1.5 14.05-2.4 14.3-6.45 14.45-14.55 5.85-29.1 2.85-32.6-0.65-33.5-0.4-35.5 6.15-35 13.15-35.5 13.05-33.5 9.45-32.7 10.9-29.15 14.7-22.7 17.25-17.9 17.45-17.9 19.9-22.25 24.2-29.25 25.5-32.9 21.9-33.5 22.15-35.5 27.8-35 33.15-35.5 33.05-33.5 29.4-32.7 26.85-29.15 18.75-15.8ZM36.35-4.55L34.7-9.5 34.7-16.05 37.65-22 43.3-25.75 50.15-26 56.4-22.25 59.65-16.25 59.05-7.1 55.35-1.2 47.6 1 41.1-0.25 36.35-4.55ZM43.35-23.2L40.2-17.75 39.95-12.15 40.55-6.35 42.7-2.6 48-1.3 52.9-3.45 54.35-11.25 53.85-17.75 52-21.9 48.35-23.75 43.35-23.2ZM71-24.95L70.7-17.25 70.7-6.35 72.05-3.05 76.25-2.5 81.7-5.75 81.7-11.05 81.65-17.3 81.4-22.5 77.84-22.35 77.59-24.1 84.5-25.45 87-24.9 86.65-18.1 86.59-14.1 86.7-11.05 86.7-2.05 90.2-1.05 89.95 0.7 83.09 0.7 81.95-3.5 76.3 0.65 71.2 1 66.59-2.15 65.84-6.15 65.89-16.85 65.39-22.55 61.84-22.4 61.59-24.15 68.5-25.5 71-24.95ZM101.34-24.95L101.14-20.9 101.34-20.9 104.44-24.45 107.84-25.95 111.59-25 110.74-17.55 108.99-17.9 107.74-23.05 104.49-22 100.94-17.85 100.69-13.15 100.84-8.3 101.04-2.5 106.04-1.5 105.79 0.25 98.54 0 92.44 0.25 92.54-1.5 95.84-2.5 96.09-7.75 95.99-17.35 95.74-22.55 92.19-22.4 91.94-24.15 98.84-25.5 101.34-24.95ZM132.79-35L141.29-35 147.09-34.25 151.79-29.5 151.79-24.8 149.09-20.75 144.39-18.8 144.39-18.7 149.49-17.6 153.19-13.8 154.14-10.2 152.24-3.55 147.24-0.65 141.09 0.25 133.04 0 126.19 0.5 126.29-1.25 130.29-2.5 130.79-17.85 130.29-32.5 126.19-33.7 126.44-35.45 132.79-35ZM135.04-19.35L141.04-19.6 146.24-22.35 146.79-27.8 144.24-31.95 141.24-32.75 135.39-32.6 135.04-19.35ZM144.84-2.75L148.64-6.75 147.94-14.15 144.54-16.55 141.04-17.1 135.04-17.1 135.54-2.25 141.29-2 144.84-2.75ZM166.54-24.95L166.34-20.9 166.54-20.9 169.64-24.45 173.04-25.95 176.79-25 175.94-17.55 174.19-17.9 172.94-23.05 169.69-22 166.14-17.85 165.89-13.15 166.04-8.3 166.24-2.5 171.24-1.5 170.99 0.25 163.74 0 157.64 0.25 157.74-1.5 161.04-2.5 161.29-7.75 161.19-17.35 160.94-22.55 157.39-22.4 157.14-24.15 164.04-25.5 166.54-24.95ZM198.18-19.8L198.23-9.1 198.58-2.05 202.03-1.55 201.68 0.1 194.73 0.7 194.08-2.25 193.83-2.25 188.88 0.7 183.68 0.7 180.18-1.85 179.13-6.75 181.33-10.65 187.33-13.25 193.93-13.5 193.73-19.75 192.78-22.85 188.73-24 183.88-22.85 183.73-17.55 181.78-17.15 180.48-24 186.23-25.7 192.68-26 196.58-24.1 198.18-19.8ZM183.98-6.85L185.33-2.8 189.08-1.85 194.13-4.75 193.93-11.5 189.58-11.5 185.73-9.95 183.98-6.85ZM228.43-8.3L228.83-2.45 232.38-1.5 232.13 0.25 226.23 0 220.13 0.25 220.23-1.5 223.53-2.5 223.88-7.75 223.68-18.65 222.33-21.95 218.08-22.7 212.63-19.9 212.53-18.15 212.23-13.15 212.33-8.3 212.58-2.5 216.23-1.5 215.98 0.25 210.08 0 203.98 0.25 204.08-1.5 207.38-2.5 207.73-7.75 207.28-22.55 203.73-22.4 203.48-24.15 210.38-25.5 212.88-24.95 212.73-22.4 218.08-25.65 223.18-26 227.78-22.85 228.53-18.85 228.43-8.3ZM253.83 0.7L252.88-2.25 252.63-2.25 247.08 1 241.53 0.4 237.88-2.2 234.98-8.15 234.93-16.65 236.83-20.6 242.58-25.25 248.13-26 252.98-24.75 252.68-34.3 248.53-34.7 248.78-36.45 255.68-37.8 257.68-37.25 257.33-17.9 257.68-2.05 261.13-1.55 260.78 0.1 253.83 0.7ZM241.23-4.6L245.53-1.55 252.88-4.35 252.98-22 247.43-23.75 244.28-22.85 240.43-18.75 239.73-13 241.23-4.6ZM264.28-2.65L265.43-4.5 267.73-5.4 270.03-4.45 271.18-2.9 271.63 0.05 270.43 4.9 267.28 8.25 265.98 6.85 268.43 3.95 268.53 0.75 266.28 0.75 264.73-0.55 264.28-2.65ZM304.37-15.8L304.72-6.5 305.12-2.5 309.17-1.5 308.92 0.5 302.32 0 295.62 0.5 295.72-1.5 299.67-2.4 299.92-6.45 300.07-14.55 291.47-29.1 288.47-32.6 284.97-33.5 285.22-35.5 291.77-35 298.77-35.5 298.67-33.5 295.07-32.7 296.52-29.15 300.32-22.7 302.87-17.9 303.07-17.9 305.52-22.25 309.82-29.25 311.12-32.9 307.52-33.5 307.77-35.5 313.42-35 318.77-35.5 318.67-33.5 315.02-32.7 312.47-29.15 304.37-15.8ZM321.97-4.55L320.32-9.5 320.32-16.05 323.27-22 328.92-25.75 335.77-26 342.02-22.25 345.27-16.25 344.67-7.1 340.97-1.2 333.22 1 326.72-0.25 321.97-4.55ZM328.97-23.2L325.82-17.75 325.57-12.15 326.17-6.35 328.32-2.6 333.62-1.3 338.52-3.45 339.97-11.25 339.47-17.75 337.62-21.9 333.97-23.75 328.97-23.2ZM356.62-24.95L356.32-17.25 356.32-6.35 357.67-3.05 361.87-2.5 367.32-5.75 367.32-11.05 367.27-17.3 367.02-22.5 363.47-22.35 363.22-24.1 370.12-25.45 372.62-24.9 372.27-18.1 372.22-14.1 372.32-11.05 372.32-2.05 375.82-1.05 375.57 0.7 368.72 0.7 367.57-3.5 361.92 0.65 356.82 1 352.22-2.15 351.47-6.15 351.52-16.85 351.02-22.55 347.47-22.4 347.22-24.15 354.12-25.5 356.62-24.95ZM386.96-24.95L386.76-20.9 386.96-20.9 390.06-24.45 393.46-25.95 397.21-25 396.36-17.55 394.61-17.9 393.36-23.05 390.11-22 386.56-17.85 386.31-13.15 386.46-8.3 386.66-2.5 391.66-1.5 391.41 0.25 384.16 0 378.06 0.25 378.16-1.5 381.46-2.5 381.71-7.75 381.61-17.35 381.36-22.55 377.81-22.4 377.56-24.15 384.46-25.5 386.96-24.95ZM425.71-14L420.66-14.6 421.16-2.5 426.01-1.5 425.76 0.5 418.66 0 411.81 0.5 411.91-1.5 416.06-2.5 416.41-15.3 416.16-32.5 412.06-33.5 412.31-35.5 418.41-35 425.11-35.55 429.21-35.25 433.26-33.95 437.21-30.95 438.46-25.8 437.56-20.25 434.51-16.75 425.71-14ZM428.31-33.2L421.01-32.75 420.71-16.8 425.11-16.25 431.86-19.1 433.31-24.75 432.26-29.35 428.31-33.2ZM443.16-4.55L441.51-9.5 441.51-16.05 444.46-22 450.11-25.75 456.96-26 463.21-22.25 466.46-16.25 465.86-7.1 462.16-1.2 454.41 1 447.91-0.25 443.16-4.55ZM450.16-23.2L447.01-17.75 446.76-12.15 447.36-6.35 449.51-2.6 454.81-1.3 459.71-3.45 461.16-11.25 460.66-17.75 458.81-21.9 455.16-23.75 450.16-23.2ZM481.35 1.5L474.05-18.2 471.8-22.6 468.45-23.5 468.7-25.25 474.8-25 480.9-25.25 480.8-23.5 477.4-22.5 478.2-19.6 480.9-11.25 482.9-3.95 483.05-3.95 484.4-9.05 488.2-19.8 486.8-22.6 483.45-23.5 483.7-25.25 489.8-25 495.9-25.25 495.8-23.5 492.4-22.5 493.2-19.6 495.6-11.25 497.6-3.95 497.75-3.95 499.1-9.05 502.6-19.45 503.4-22.65 499.5-23.5 499.75-25.25 504.65-25 509.95-25.25 509.85-23.5 506.75-22.5 504.6-17.9 499.25-1.45 497.7 1.15 496.05 1.5 489.65-16.4 484.55-1.45 483 1.15 481.35 1.5ZM525.55-12.9L516.9-13.45 516.85-13 518.2-5.95 522.15-2.05 526.75-1.55 531.45-4.05 532.35-2.75 528.4 0.4 523.7 1 518.8-0.15 514.55-3.7 512-11.2 512.85-17.9 515.45-22.6 520.7-25.5 525.1-26.05 528.6-24.95 531.3-22.5 532.85-18.05 532.9-13.9 532.2-13.35 525.55-12.9ZM523.2-23.8L519.4-21.55 517.45-17.75 517.15-15.5 524.75-15.4 528.2-16.15 527.9-20.8 526.4-23.35 523.2-23.8ZM545-24.95L544.8-20.9 545-20.9 548.1-24.45 551.5-25.95 555.25-25 554.4-17.55 552.65-17.9 551.4-23.05 548.15-22 544.6-17.85 544.35-13.15 544.5-8.3 544.7-2.5 549.7-1.5 549.45 0.25 542.2 0 536.1 0.25 536.2-1.5 539.5-2.5 539.75-7.75 539.65-17.35 539.4-22.55 535.85-22.4 535.6-24.15 542.5-25.5 545-24.95Z" opacity="1" transform="matrix(1,0,0,1,0,0)" fill="black" class="slogan-text-1" id="SvgjsPath3471"></path></svg></g></svg></g></svg></g></svg></g><g transform="matrix(1,0,0,1,0,0.2980559000820051)"><svg viewBox="0 0 109.69388502070689 119.22236003280575" height="119.22236003280575" width="109.69388502070689"><g><svg xmlns="http://www.w3.org/2000/svg" data-name="Layer 1" viewBox="4.93 1.0402409194083329 90.1306310853582 97.95975908059167" x="0" y="0" height="119.22236003280575" width="109.69388502070689" class="icon-icon-0" data-fill-palette-color="accent" id="SvgjsSvg3470"><path d="M54.52 93.52H29.94L24.47 99 4.93 80 18.92 66A21.34 21.34 0 0 1 41 61L44.07 62.08H63A6 6 0 0 1 69 68.22 6.12 6.12 0 0 1 62.76 74H51.4A2.31 2.31 0 0 0 51.4 78.63H62.76A10.8 10.8 0 0 0 73.59 68.41S73.59 68.31 73.59 68.27L84.09 56.45A6.36 6.36 0 0 1 92.82 55.6 6.19 6.19 0 0 1 93.54 64.43L72.54 88.43A14.72 14.72 0 0 1 61.45 93.43ZM81.18 38.78A6 6 0 0 0 81.49 40.7 6 6 0 0 1 75.75 48.61 6 6 0 0 0 70 52.81 6 6 0 0 1 60.71 55.81 6 6 0 0 0 53.56 55.81 6 6 0 0 1 44.27 52.81 6 6 0 0 0 38.48 48.61 6 6 0 0 1 32.74 40.7 6 6 0 0 0 30.53 33.9 6 6 0 0 1 30.53 24.13 6 6 0 0 0 32.74 17.33 6 6 0 0 1 38.48 9.42 6 6 0 0 0 44.27 5.22 6 6 0 0 1 53.56 2.22 6 6 0 0 0 60.71 2.22 6 6 0 0 1 70 5.22 6 6 0 0 0 75.79 9.42 6 6 0 0 1 81.53 17.33 6 6 0 0 0 83.74 24.13 6 6 0 0 1 83.74 33.9 6 6 0 0 0 81.18 38.78M65.4 22.57A3.34 3.34 0 0 0 60.68 22.57L54.89 28.36 53.51 27A3.34 3.34 0 0 0 48.79 31.72L50.17 33.1 52.53 35.46A3.34 3.34 0 0 0 57.25 35.46L59.61 33.1 65.4 27.31A3.34 3.34 0 0 0 65.4 22.57" fill="black"></path></svg></g></svg></g></svg></g><defs><mask></mask></defs></svg><rect width="395.52" height="86.0549099102068" fill="black" stroke="none" visibility="hidden"></rect></g></mask></svg><rect width="395.52" height="86.0549099102068" fill="black" stroke="none" visibility="hidden"></rect></g></mask><linearGradient x1="0.054" x2="0.941" y1="0.5" y2="0.5" id="54d8f1ae-13b4-499e-8e79-e5a2098bfde9"><stop stop-color="#8c8c8c" offset="0"></stop><stop stop-color="#e3e4e5" offset="0.498"></stop><stop stop-color="#8c8c8c" offset="1"></stop></linearGradient><rect width="395.52" height="86.0549099102068" fill="url(#54d8f1ae-13b4-499e-8e79-e5a2098bfde9)" mask="url(#09ba8547-7cd7-4bf2-8ac4-3df5d5857fcb)" data-fill-palette-color="secondary"></rect><mask id="01a1aea9-d2d4-449f-93dd-571baa21cf19"><g id="SvgjsG3504"><svg viewBox="0 0 395.52 86.0549099102068" height="86.0549099102068" width="395.52"><g><svg viewBox="0 0 550.7018952065081 119.81847183296976" height="86.0549099102068" width="395.52"><g></g><g transform="matrix(1,0,0,1,155.1818952065081,0.2980559000820051)"><svg viewBox="0 0 395.52 119.22236003280575" height="119.22236003280575" width="395.52"><g id="SvgjsG3503"><svg viewBox="0 0 395.52 119.22236003280575" height="119.22236003280575" width="395.52" id="SvgjsSvg3502"><g><svg viewBox="0 0 395.52 80.89158487456807" height="80.89158487456807" width="395.52"><g transform="matrix(1,0,0,1,0,0)"><svg width="395.52" viewBox="0.809090909090909 -36.4 182.8572248803591 37.4" height="80.89158487456807" data-palette-color="url(#42bb1cb8-271a-47d5-bcb6-ac1961bf31de)"></svg></g></svg></g><g transform="matrix(1,0,0,1,0,99.9881466654166)"><svg viewBox="0 0 232.209792 19.234213367389152" height="19.234213367389152" width="232.209792"><g transform="matrix(1,0,0,1,0,0)"><svg width="232.209792" viewBox="-0.65 -37.8 555.9 46.05" height="19.234213367389152" data-palette-color="url(#54d8f1ae-13b4-499e-8e79-e5a2098bfde9)"></svg></g></svg></g></svg></g></svg></g><g transform="matrix(1,0,0,1,0,0.2980559000820051)"><svg viewBox="0 0 109.69388502070689 119.22236003280575" height="119.22236003280575" width="109.69388502070689"><g><svg xmlns="http://www.w3.org/2000/svg" data-name="Layer 1" viewBox="4.93 1.0402409194083329 90.1306310853582 97.95975908059167" x="0" y="0" height="119.22236003280575" width="109.69388502070689" class="icon-icon-0" data-fill-palette-color="accent" id="SvgjsSvg3501"><path d="M54.52 93.52H29.94L24.47 99 4.93 80 18.92 66A21.34 21.34 0 0 1 41 61L44.07 62.08H63A6 6 0 0 1 69 68.22 6.12 6.12 0 0 1 62.76 74H51.4A2.31 2.31 0 0 0 51.4 78.63H62.76A10.8 10.8 0 0 0 73.59 68.41S73.59 68.31 73.59 68.27L84.09 56.45A6.36 6.36 0 0 1 92.82 55.6 6.19 6.19 0 0 1 93.54 64.43L72.54 88.43A14.72 14.72 0 0 1 61.45 93.43ZM81.18 38.78A6 6 0 0 0 81.49 40.7 6 6 0 0 1 75.75 48.61 6 6 0 0 0 70 52.81 6 6 0 0 1 60.71 55.81 6 6 0 0 0 53.56 55.81 6 6 0 0 1 44.27 52.81 6 6 0 0 0 38.48 48.61 6 6 0 0 1 32.74 40.7 6 6 0 0 0 30.53 33.9 6 6 0 0 1 30.53 24.13 6 6 0 0 0 32.74 17.33 6 6 0 0 1 38.48 9.42 6 6 0 0 0 44.27 5.22 6 6 0 0 1 53.56 2.22 6 6 0 0 0 60.71 2.22 6 6 0 0 1 70 5.22 6 6 0 0 0 75.79 9.42 6 6 0 0 1 81.53 17.33 6 6 0 0 0 83.74 24.13 6 6 0 0 1 83.74 33.9 6 6 0 0 0 81.18 38.78M65.4 22.57A3.34 3.34 0 0 0 60.68 22.57L54.89 28.36 53.51 27A3.34 3.34 0 0 0 48.79 31.72L50.17 33.1 52.53 35.46A3.34 3.34 0 0 0 57.25 35.46L59.61 33.1 65.4 27.31A3.34 3.34 0 0 0 65.4 22.57" fill="white"></path></svg></g></svg></g></svg></g><defs><mask></mask></defs><mask><g id="SvgjsG3500"><svg viewBox="0 0 395.52 86.0549099102068" height="86.0549099102068" width="395.52"><g><svg viewBox="0 0 550.7018952065081 119.81847183296976" height="86.0549099102068" width="395.52"><g><rect width="7.29488660410414" height="119.81847183296976" x="128.79044681155543" y="0" fill="black" opacity="1" stroke-width="0" stroke="transparent" fill-opacity="1" class="rect-yte-0" rx="1%" id="SvgjsRect3499" data-palette-color="url(#42bb1cb8-271a-47d5-bcb6-ac1961bf31de)"></rect></g><g transform="matrix(1,0,0,1,155.1818952065081,0.2980559000820051)"><svg viewBox="0 0 395.52 119.22236003280575" height="119.22236003280575" width="395.52"><g id="SvgjsG3498"><svg viewBox="0 0 395.52 119.22236003280575" height="119.22236003280575" width="395.52" id="SvgjsSvg3497"><g><svg viewBox="0 0 395.52 80.89158487456807" height="80.89158487456807" width="395.52"><g transform="matrix(1,0,0,1,0,0)"><svg width="395.52" viewBox="0.809090909090909 -36.4 182.8572248803591 37.4" height="80.89158487456807" data-palette-color="url(#42bb1cb8-271a-47d5-bcb6-ac1961bf31de)"><path d="M9.75-25.05L9.6-21.65 9.65-21.6Q11.95-24 14.35-24.9 16.75-25.8 18.55-25.8L18.55-25.8Q21-25.8 22.7-24.73 24.4-23.65 25.1-21.6L25.1-21.6Q27.25-24 29.35-24.9 31.45-25.8 33.55-25.8L33.55-25.8Q36.8-25.8 38.68-23.95 40.55-22.1 40.55-18.55L40.55-18.55 40.6-2.5 44.1-1.5Q44.25-0.55 43.85 0.25L43.85 0.25Q42.5 0.15 41 0.08 39.5 0 38.1 0L38.1 0Q36.7 0 35.15 0.08 33.6 0.15 32.2 0.25L32.2 0.25Q32.05-0.7 32.3-1.5L32.3-1.5Q33.3-1.7 34.08-1.95 34.85-2.2 35.6-2.5L35.6-2.5 35.6-16.3Q35.6-19.7 34.55-20.95 33.5-22.2 31.2-22.2L31.2-22.2Q30.1-22.2 28.6-21.48 27.1-20.75 25.55-18.95L25.55-18.95 25.55-18.55 25.6-2.5 29.1-1.5Q29.25-0.55 28.85 0.25L28.85 0.25Q27.5 0.15 26 0.08 24.5 0 23.1 0L23.1 0Q21.7 0 20.15 0.08 18.6 0.15 17.2 0.25L17.2 0.25Q17.05-0.7 17.3-1.5L17.3-1.5Q18.3-1.7 19.07-1.95 19.85-2.2 20.6-2.5L20.6-2.5 20.6-16.3Q20.6-19.7 19.55-21 18.5-22.3 16.2-22.3L16.2-22.3Q15-22.3 13.38-21.58 11.75-20.85 10-19.3L10-19.3 10-2.5 13.35-1.5Q13.5-0.55 13.1 0.25L13.1 0.25Q11.75 0.15 10.33 0.08 8.9 0 7.5 0L7.5 0Q6.1 0 4.45 0.08 2.8 0.15 1.4 0.25L1.4 0.25Q1.25-0.7 1.5-1.5L1.5-1.5Q2.4-1.75 3.3-1.98 4.2-2.2 5-2.5L5-2.5 5-22 0.85-22.4Q0.7-23.4 1.1-24.15L1.1-24.15Q2.95-24.45 4.7-24.8 6.45-25.15 8.05-25.5L8.05-25.5Q8.9-25.45 9.75-25.05L9.75-25.05ZM46.35-12.5L46.35-12.5Q46.35-16.4 47.87-19.45 49.4-22.5 52.25-24.25 55.1-26 58.95-26L58.95-26Q62.85-26 65.67-24.25 68.5-22.5 70.02-19.45 71.55-16.4 71.55-12.5L71.55-12.5Q71.55-8.5 70.02-5.45 68.5-2.4 65.67-0.7 62.85 1 58.95 1L58.95 1Q55.1 1 52.25-0.7 49.4-2.4 47.87-5.45 46.35-8.5 46.35-12.5ZM66.15-11.8L66.15-11.8Q66.15-15.15 65.4-17.88 64.65-20.6 63.05-22.23 61.45-23.85 58.85-23.85L58.85-23.85Q56.2-23.85 54.62-22.25 53.05-20.65 52.4-18 51.75-15.35 51.75-12.15L51.75-12.15Q51.75-9.25 52.5-6.73 53.25-4.2 54.87-2.68 56.5-1.15 59.05-1.15L59.05-1.15Q61.75-1.15 63.3-2.65 64.85-4.15 65.5-6.6 66.15-9.05 66.15-11.8ZM83.1-25.05L82.95-21.65 83-21.6Q85.4-24 87.95-24.9 90.5-25.8 92.4-25.8L92.4-25.8Q95.65-25.8 97.52-23.95 99.4-22.1 99.4-18.55L99.4-18.55 99.45-2.5 102.95-1.5Q103.1-0.55 102.7 0.25L102.7 0.25Q101.35 0.15 99.85 0.08 98.35 0 96.95 0L96.95 0Q95.55 0 94 0.08 92.45 0.15 91.05 0.25L91.05 0.25Q90.9-0.7 91.15-1.5L91.15-1.5Q92.15-1.7 92.92-1.95 93.7-2.2 94.45-2.5L94.45-2.5 94.45-16.3Q94.45-19.7 93.4-21 92.35-22.3 90.05-22.3L90.05-22.3Q88.2-22.3 86.45-21.58 84.7-20.85 83.35-19.3L83.35-19.3 83.35-2.5 86.7-1.5Q86.85-0.55 86.45 0.25L86.45 0.25Q85.1 0.15 83.67 0.08 82.25 0 80.85 0L80.85 0Q79.45 0 77.8 0.08 76.15 0.15 74.75 0.25L74.75 0.25Q74.6-0.7 74.85-1.5L74.85-1.5Q75.75-1.75 76.65-1.98 77.55-2.2 78.35-2.5L78.35-2.5 78.35-22 74.2-22.4Q74.05-23.4 74.45-24.15L74.45-24.15Q76.3-24.45 78.05-24.8 79.8-25.15 81.4-25.5L81.4-25.5Q82.25-25.45 83.1-25.05L83.1-25.05ZM113.69-24.95L113.69-2.5 117.04-1.5Q117.19-0.55 116.79 0.25L116.79 0.25Q115.44 0.15 114.02 0.08 112.59 0 111.19 0L111.19 0Q109.79 0 108.14 0.08 106.49 0.15 105.09 0.25L105.09 0.25Q104.94-0.7 105.19-1.5L105.19-1.5Q106.14-1.75 107.07-1.95 107.99-2.15 108.69-2.5L108.69-2.5 108.69-22 104.54-22.4Q104.39-23.4 104.79-24.15L104.79-24.15Q106.59-24.4 108.42-24.75 110.24-25.1 111.79-25.5L111.79-25.5Q112.29-25.45 112.74-25.33 113.19-25.2 113.69-24.95L113.69-24.95ZM110.34-30.05L110.34-30.05Q109.49-30.05 108.79-30.6 108.09-31.15 107.69-31.95 107.29-32.75 107.29-33.45L107.29-33.45Q107.29-34.1 107.84-34.77 108.39-35.45 109.22-35.93 110.04-36.4 110.84-36.4L110.84-36.4Q111.74-36.4 112.44-35.83 113.14-35.25 113.52-34.48 113.89-33.7 113.89-33L113.89-33Q113.89-32.35 113.37-31.65 112.84-30.95 112.02-30.5 111.19-30.05 110.34-30.05ZM128.14 0.8L128.14 0.8Q126.54 0.8 125.24 0.2 123.94-0.4 123.22-1.88 122.49-3.35 122.49-5.95L122.49-5.95 122.49-21.9 118.99-21.9Q118.69-22.45 118.67-23.03 118.64-23.6 118.74-24.15L118.74-24.15Q120.84-24.15 121.89-24.7 122.94-25.25 123.52-26.6 124.09-27.95 124.74-30.25L124.74-30.25 127.39-30.25 127.39-24.65 132.64-24.65Q133.34-23.2 132.64-21.9L132.64-21.9 127.39-21.9 127.39-7.2Q127.39-4.9 127.62-3.73 127.84-2.55 128.39-2.13 128.94-1.7 129.89-1.7L129.89-1.7Q130.69-1.7 131.44-2 132.19-2.3 132.89-2.7L132.89-2.7Q133.59-2.25 133.64-1.2L133.64-1.2Q133.09-0.55 131.64 0.13 130.19 0.8 128.14 0.8ZM135.94-12.5L135.94-12.5Q135.94-16.4 137.46-19.45 138.99-22.5 141.84-24.25 144.69-26 148.54-26L148.54-26Q152.44-26 155.26-24.25 158.09-22.5 159.61-19.45 161.14-16.4 161.14-12.5L161.14-12.5Q161.14-8.5 159.61-5.45 158.09-2.4 155.26-0.7 152.44 1 148.54 1L148.54 1Q144.69 1 141.84-0.7 138.99-2.4 137.46-5.45 135.94-8.5 135.94-12.5ZM155.74-11.8L155.74-11.8Q155.74-15.15 154.99-17.88 154.24-20.6 152.64-22.23 151.04-23.85 148.44-23.85L148.44-23.85Q145.79-23.85 144.21-22.25 142.64-20.65 141.99-18 141.34-15.35 141.34-12.15L141.34-12.15Q141.34-9.25 142.09-6.73 142.84-4.2 144.46-2.68 146.09-1.15 148.64-1.15L148.64-1.15Q151.34-1.15 152.89-2.65 154.44-4.15 155.09-6.6 155.74-9.05 155.74-11.8ZM172.94-16.85L172.94-2.5 177.79-1.5Q177.94-0.55 177.54 0.25L177.54 0.25Q176.64 0.2 175.31 0.15 173.99 0.1 172.69 0.05 171.39 0 170.44 0L170.44 0Q169.04 0 167.39 0.08 165.74 0.15 164.34 0.25L164.34 0.25Q164.19-0.7 164.44-1.5L164.44-1.5Q165.39-1.75 166.31-1.95 167.24-2.15 167.94-2.5L167.94-2.5 167.94-22 163.79-22.4Q163.64-23.4 164.04-24.15L164.04-24.15Q165.84-24.4 167.66-24.75 169.49-25.1 171.04-25.5L171.04-25.5Q171.54-25.45 171.86-25.33 172.19-25.2 172.69-24.95L172.69-24.95 172.69-20.4 172.74-20.35Q174.29-22.65 176.21-24.25 178.14-25.85 180.34-25.85L180.34-25.85Q181.19-25.85 182.01-25.73 182.84-25.6 183.64-25.1L183.64-25.1Q183.74-23.05 183.46-21.2 183.19-19.35 182.64-17.6L182.64-17.6Q182.29-17.55 181.54-17.57 180.79-17.6 180.39-17.8L180.39-17.8 179.69-22.8Q177.94-22.8 176.16-21.53 174.39-20.25 172.94-16.85L172.94-16.85Z" opacity="1" transform="matrix(1,0,0,1,0,0)" fill="black" class="wordmark-text-0" id="SvgjsPath3496"></path></svg></g></svg></g><g transform="matrix(1,0,0,1,0,99.9881466654166)"><svg viewBox="0 0 232.209792 19.234213367389152" height="19.234213367389152" width="232.209792"><g transform="matrix(1,0,0,1,0,0)"><svg width="232.209792" viewBox="-0.65 -37.8 555.9 46.05" height="19.234213367389152" data-palette-color="url(#54d8f1ae-13b4-499e-8e79-e5a2098bfde9)"><path d="M18.75-15.8L19.1-6.5 19.5-2.5 23.55-1.5 23.3 0.5 16.7 0 10 0.5 10.1-1.5 14.05-2.4 14.3-6.45 14.45-14.55 5.85-29.1 2.85-32.6-0.65-33.5-0.4-35.5 6.15-35 13.15-35.5 13.05-33.5 9.45-32.7 10.9-29.15 14.7-22.7 17.25-17.9 17.45-17.9 19.9-22.25 24.2-29.25 25.5-32.9 21.9-33.5 22.15-35.5 27.8-35 33.15-35.5 33.05-33.5 29.4-32.7 26.85-29.15 18.75-15.8ZM36.35-4.55L34.7-9.5 34.7-16.05 37.65-22 43.3-25.75 50.15-26 56.4-22.25 59.65-16.25 59.05-7.1 55.35-1.2 47.6 1 41.1-0.25 36.35-4.55ZM43.35-23.2L40.2-17.75 39.95-12.15 40.55-6.35 42.7-2.6 48-1.3 52.9-3.45 54.35-11.25 53.85-17.75 52-21.9 48.35-23.75 43.35-23.2ZM71-24.95L70.7-17.25 70.7-6.35 72.05-3.05 76.25-2.5 81.7-5.75 81.7-11.05 81.65-17.3 81.4-22.5 77.84-22.35 77.59-24.1 84.5-25.45 87-24.9 86.65-18.1 86.59-14.1 86.7-11.05 86.7-2.05 90.2-1.05 89.95 0.7 83.09 0.7 81.95-3.5 76.3 0.65 71.2 1 66.59-2.15 65.84-6.15 65.89-16.85 65.39-22.55 61.84-22.4 61.59-24.15 68.5-25.5 71-24.95ZM101.34-24.95L101.14-20.9 101.34-20.9 104.44-24.45 107.84-25.95 111.59-25 110.74-17.55 108.99-17.9 107.74-23.05 104.49-22 100.94-17.85 100.69-13.15 100.84-8.3 101.04-2.5 106.04-1.5 105.79 0.25 98.54 0 92.44 0.25 92.54-1.5 95.84-2.5 96.09-7.75 95.99-17.35 95.74-22.55 92.19-22.4 91.94-24.15 98.84-25.5 101.34-24.95ZM132.79-35L141.29-35 147.09-34.25 151.79-29.5 151.79-24.8 149.09-20.75 144.39-18.8 144.39-18.7 149.49-17.6 153.19-13.8 154.14-10.2 152.24-3.55 147.24-0.65 141.09 0.25 133.04 0 126.19 0.5 126.29-1.25 130.29-2.5 130.79-17.85 130.29-32.5 126.19-33.7 126.44-35.45 132.79-35ZM135.04-19.35L141.04-19.6 146.24-22.35 146.79-27.8 144.24-31.95 141.24-32.75 135.39-32.6 135.04-19.35ZM144.84-2.75L148.64-6.75 147.94-14.15 144.54-16.55 141.04-17.1 135.04-17.1 135.54-2.25 141.29-2 144.84-2.75ZM166.54-24.95L166.34-20.9 166.54-20.9 169.64-24.45 173.04-25.95 176.79-25 175.94-17.55 174.19-17.9 172.94-23.05 169.69-22 166.14-17.85 165.89-13.15 166.04-8.3 166.24-2.5 171.24-1.5 170.99 0.25 163.74 0 157.64 0.25 157.74-1.5 161.04-2.5 161.29-7.75 161.19-17.35 160.94-22.55 157.39-22.4 157.14-24.15 164.04-25.5 166.54-24.95ZM198.18-19.8L198.23-9.1 198.58-2.05 202.03-1.55 201.68 0.1 194.73 0.7 194.08-2.25 193.83-2.25 188.88 0.7 183.68 0.7 180.18-1.85 179.13-6.75 181.33-10.65 187.33-13.25 193.93-13.5 193.73-19.75 192.78-22.85 188.73-24 183.88-22.85 183.73-17.55 181.78-17.15 180.48-24 186.23-25.7 192.68-26 196.58-24.1 198.18-19.8ZM183.98-6.85L185.33-2.8 189.08-1.85 194.13-4.75 193.93-11.5 189.58-11.5 185.73-9.95 183.98-6.85ZM228.43-8.3L228.83-2.45 232.38-1.5 232.13 0.25 226.23 0 220.13 0.25 220.23-1.5 223.53-2.5 223.88-7.75 223.68-18.65 222.33-21.95 218.08-22.7 212.63-19.9 212.53-18.15 212.23-13.15 212.33-8.3 212.58-2.5 216.23-1.5 215.98 0.25 210.08 0 203.98 0.25 204.08-1.5 207.38-2.5 207.73-7.75 207.28-22.55 203.73-22.4 203.48-24.15 210.38-25.5 212.88-24.95 212.73-22.4 218.08-25.65 223.18-26 227.78-22.85 228.53-18.85 228.43-8.3ZM253.83 0.7L252.88-2.25 252.63-2.25 247.08 1 241.53 0.4 237.88-2.2 234.98-8.15 234.93-16.65 236.83-20.6 242.58-25.25 248.13-26 252.98-24.75 252.68-34.3 248.53-34.7 248.78-36.45 255.68-37.8 257.68-37.25 257.33-17.9 257.68-2.05 261.13-1.55 260.78 0.1 253.83 0.7ZM241.23-4.6L245.53-1.55 252.88-4.35 252.98-22 247.43-23.75 244.28-22.85 240.43-18.75 239.73-13 241.23-4.6ZM264.28-2.65L265.43-4.5 267.73-5.4 270.03-4.45 271.18-2.9 271.63 0.05 270.43 4.9 267.28 8.25 265.98 6.85 268.43 3.95 268.53 0.75 266.28 0.75 264.73-0.55 264.28-2.65ZM304.37-15.8L304.72-6.5 305.12-2.5 309.17-1.5 308.92 0.5 302.32 0 295.62 0.5 295.72-1.5 299.67-2.4 299.92-6.45 300.07-14.55 291.47-29.1 288.47-32.6 284.97-33.5 285.22-35.5 291.77-35 298.77-35.5 298.67-33.5 295.07-32.7 296.52-29.15 300.32-22.7 302.87-17.9 303.07-17.9 305.52-22.25 309.82-29.25 311.12-32.9 307.52-33.5 307.77-35.5 313.42-35 318.77-35.5 318.67-33.5 315.02-32.7 312.47-29.15 304.37-15.8ZM321.97-4.55L320.32-9.5 320.32-16.05 323.27-22 328.92-25.75 335.77-26 342.02-22.25 345.27-16.25 344.67-7.1 340.97-1.2 333.22 1 326.72-0.25 321.97-4.55ZM328.97-23.2L325.82-17.75 325.57-12.15 326.17-6.35 328.32-2.6 333.62-1.3 338.52-3.45 339.97-11.25 339.47-17.75 337.62-21.9 333.97-23.75 328.97-23.2ZM356.62-24.95L356.32-17.25 356.32-6.35 357.67-3.05 361.87-2.5 367.32-5.75 367.32-11.05 367.27-17.3 367.02-22.5 363.47-22.35 363.22-24.1 370.12-25.45 372.62-24.9 372.27-18.1 372.22-14.1 372.32-11.05 372.32-2.05 375.82-1.05 375.57 0.7 368.72 0.7 367.57-3.5 361.92 0.65 356.82 1 352.22-2.15 351.47-6.15 351.52-16.85 351.02-22.55 347.47-22.4 347.22-24.15 354.12-25.5 356.62-24.95ZM386.96-24.95L386.76-20.9 386.96-20.9 390.06-24.45 393.46-25.95 397.21-25 396.36-17.55 394.61-17.9 393.36-23.05 390.11-22 386.56-17.85 386.31-13.15 386.46-8.3 386.66-2.5 391.66-1.5 391.41 0.25 384.16 0 378.06 0.25 378.16-1.5 381.46-2.5 381.71-7.75 381.61-17.35 381.36-22.55 377.81-22.4 377.56-24.15 384.46-25.5 386.96-24.95ZM425.71-14L420.66-14.6 421.16-2.5 426.01-1.5 425.76 0.5 418.66 0 411.81 0.5 411.91-1.5 416.06-2.5 416.41-15.3 416.16-32.5 412.06-33.5 412.31-35.5 418.41-35 425.11-35.55 429.21-35.25 433.26-33.95 437.21-30.95 438.46-25.8 437.56-20.25 434.51-16.75 425.71-14ZM428.31-33.2L421.01-32.75 420.71-16.8 425.11-16.25 431.86-19.1 433.31-24.75 432.26-29.35 428.31-33.2ZM443.16-4.55L441.51-9.5 441.51-16.05 444.46-22 450.11-25.75 456.96-26 463.21-22.25 466.46-16.25 465.86-7.1 462.16-1.2 454.41 1 447.91-0.25 443.16-4.55ZM450.16-23.2L447.01-17.75 446.76-12.15 447.36-6.35 449.51-2.6 454.81-1.3 459.71-3.45 461.16-11.25 460.66-17.75 458.81-21.9 455.16-23.75 450.16-23.2ZM481.35 1.5L474.05-18.2 471.8-22.6 468.45-23.5 468.7-25.25 474.8-25 480.9-25.25 480.8-23.5 477.4-22.5 478.2-19.6 480.9-11.25 482.9-3.95 483.05-3.95 484.4-9.05 488.2-19.8 486.8-22.6 483.45-23.5 483.7-25.25 489.8-25 495.9-25.25 495.8-23.5 492.4-22.5 493.2-19.6 495.6-11.25 497.6-3.95 497.75-3.95 499.1-9.05 502.6-19.45 503.4-22.65 499.5-23.5 499.75-25.25 504.65-25 509.95-25.25 509.85-23.5 506.75-22.5 504.6-17.9 499.25-1.45 497.7 1.15 496.05 1.5 489.65-16.4 484.55-1.45 483 1.15 481.35 1.5ZM525.55-12.9L516.9-13.45 516.85-13 518.2-5.95 522.15-2.05 526.75-1.55 531.45-4.05 532.35-2.75 528.4 0.4 523.7 1 518.8-0.15 514.55-3.7 512-11.2 512.85-17.9 515.45-22.6 520.7-25.5 525.1-26.05 528.6-24.95 531.3-22.5 532.85-18.05 532.9-13.9 532.2-13.35 525.55-12.9ZM523.2-23.8L519.4-21.55 517.45-17.75 517.15-15.5 524.75-15.4 528.2-16.15 527.9-20.8 526.4-23.35 523.2-23.8ZM545-24.95L544.8-20.9 545-20.9 548.1-24.45 551.5-25.95 555.25-25 554.4-17.55 552.65-17.9 551.4-23.05 548.15-22 544.6-17.85 544.35-13.15 544.5-8.3 544.7-2.5 549.7-1.5 549.45 0.25 542.2 0 536.1 0.25 536.2-1.5 539.5-2.5 539.75-7.75 539.65-17.35 539.4-22.55 535.85-22.4 535.6-24.15 542.5-25.5 545-24.95Z" opacity="1" transform="matrix(1,0,0,1,0,0)" fill="black" class="slogan-text-1" id="SvgjsPath3495"></path></svg></g></svg></g></svg></g></svg></g><g transform="matrix(1,0,0,1,0,0.2980559000820051)"><svg viewBox="0 0 109.69388502070689 119.22236003280575" height="119.22236003280575" width="109.69388502070689"><g><svg xmlns="http://www.w3.org/2000/svg" data-name="Layer 1" viewBox="4.93 1.0402409194083329 90.1306310853582 97.95975908059167" x="0" y="0" height="119.22236003280575" width="109.69388502070689" class="icon-icon-0" data-fill-palette-color="accent" id="SvgjsSvg3494"><path d="M54.52 93.52H29.94L24.47 99 4.93 80 18.92 66A21.34 21.34 0 0 1 41 61L44.07 62.08H63A6 6 0 0 1 69 68.22 6.12 6.12 0 0 1 62.76 74H51.4A2.31 2.31 0 0 0 51.4 78.63H62.76A10.8 10.8 0 0 0 73.59 68.41S73.59 68.31 73.59 68.27L84.09 56.45A6.36 6.36 0 0 1 92.82 55.6 6.19 6.19 0 0 1 93.54 64.43L72.54 88.43A14.72 14.72 0 0 1 61.45 93.43ZM81.18 38.78A6 6 0 0 0 81.49 40.7 6 6 0 0 1 75.75 48.61 6 6 0 0 0 70 52.81 6 6 0 0 1 60.71 55.81 6 6 0 0 0 53.56 55.81 6 6 0 0 1 44.27 52.81 6 6 0 0 0 38.48 48.61 6 6 0 0 1 32.74 40.7 6 6 0 0 0 30.53 33.9 6 6 0 0 1 30.53 24.13 6 6 0 0 0 32.74 17.33 6 6 0 0 1 38.48 9.42 6 6 0 0 0 44.27 5.22 6 6 0 0 1 53.56 2.22 6 6 0 0 0 60.71 2.22 6 6 0 0 1 70 5.22 6 6 0 0 0 75.79 9.42 6 6 0 0 1 81.53 17.33 6 6 0 0 0 83.74 24.13 6 6 0 0 1 83.74 33.9 6 6 0 0 0 81.18 38.78M65.4 22.57A3.34 3.34 0 0 0 60.68 22.57L54.89 28.36 53.51 27A3.34 3.34 0 0 0 48.79 31.72L50.17 33.1 52.53 35.46A3.34 3.34 0 0 0 57.25 35.46L59.61 33.1 65.4 27.31A3.34 3.34 0 0 0 65.4 22.57" fill="black"></path></svg></g></svg></g></svg></g><defs><mask></mask></defs></svg><rect width="395.52" height="86.0549099102068" fill="black" stroke="none" visibility="hidden"></rect></g></mask><mask><g id="SvgjsG3493"><svg viewBox="0 0 395.52 86.0549099102068" height="86.0549099102068" width="395.52"><g><svg viewBox="0 0 550.7018952065081 119.81847183296976" height="86.0549099102068" width="395.52"><g></g><g transform="matrix(1,0,0,1,155.1818952065081,0.2980559000820051)"><svg viewBox="0 0 395.52 119.22236003280575" height="119.22236003280575" width="395.52"><g id="SvgjsG3492"><svg viewBox="0 0 395.52 119.22236003280575" height="119.22236003280575" width="395.52" id="SvgjsSvg3491"><g><svg viewBox="0 0 395.52 80.89158487456807" height="80.89158487456807" width="395.52"><g transform="matrix(1,0,0,1,0,0)"><svg width="395.52" viewBox="0.809090909090909 -36.4 182.8572248803591 37.4" height="80.89158487456807" data-palette-color="url(#42bb1cb8-271a-47d5-bcb6-ac1961bf31de)"></svg></g></svg></g><g transform="matrix(1,0,0,1,0,99.9881466654166)"><svg viewBox="0 0 232.209792 19.234213367389152" height="19.234213367389152" width="232.209792"><g transform="matrix(1,0,0,1,0,0)"><svg width="232.209792" viewBox="-0.65 -37.8 555.9 46.05" height="19.234213367389152" data-palette-color="url(#54d8f1ae-13b4-499e-8e79-e5a2098bfde9)"><path d="M18.75-15.8L19.1-6.5 19.5-2.5 23.55-1.5 23.3 0.5 16.7 0 10 0.5 10.1-1.5 14.05-2.4 14.3-6.45 14.45-14.55 5.85-29.1 2.85-32.6-0.65-33.5-0.4-35.5 6.15-35 13.15-35.5 13.05-33.5 9.45-32.7 10.9-29.15 14.7-22.7 17.25-17.9 17.45-17.9 19.9-22.25 24.2-29.25 25.5-32.9 21.9-33.5 22.15-35.5 27.8-35 33.15-35.5 33.05-33.5 29.4-32.7 26.85-29.15 18.75-15.8ZM36.35-4.55L34.7-9.5 34.7-16.05 37.65-22 43.3-25.75 50.15-26 56.4-22.25 59.65-16.25 59.05-7.1 55.35-1.2 47.6 1 41.1-0.25 36.35-4.55ZM43.35-23.2L40.2-17.75 39.95-12.15 40.55-6.35 42.7-2.6 48-1.3 52.9-3.45 54.35-11.25 53.85-17.75 52-21.9 48.35-23.75 43.35-23.2ZM71-24.95L70.7-17.25 70.7-6.35 72.05-3.05 76.25-2.5 81.7-5.75 81.7-11.05 81.65-17.3 81.4-22.5 77.84-22.35 77.59-24.1 84.5-25.45 87-24.9 86.65-18.1 86.59-14.1 86.7-11.05 86.7-2.05 90.2-1.05 89.95 0.7 83.09 0.7 81.95-3.5 76.3 0.65 71.2 1 66.59-2.15 65.84-6.15 65.89-16.85 65.39-22.55 61.84-22.4 61.59-24.15 68.5-25.5 71-24.95ZM101.34-24.95L101.14-20.9 101.34-20.9 104.44-24.45 107.84-25.95 111.59-25 110.74-17.55 108.99-17.9 107.74-23.05 104.49-22 100.94-17.85 100.69-13.15 100.84-8.3 101.04-2.5 106.04-1.5 105.79 0.25 98.54 0 92.44 0.25 92.54-1.5 95.84-2.5 96.09-7.75 95.99-17.35 95.74-22.55 92.19-22.4 91.94-24.15 98.84-25.5 101.34-24.95ZM132.79-35L141.29-35 147.09-34.25 151.79-29.5 151.79-24.8 149.09-20.75 144.39-18.8 144.39-18.7 149.49-17.6 153.19-13.8 154.14-10.2 152.24-3.55 147.24-0.65 141.09 0.25 133.04 0 126.19 0.5 126.29-1.25 130.29-2.5 130.79-17.85 130.29-32.5 126.19-33.7 126.44-35.45 132.79-35ZM135.04-19.35L141.04-19.6 146.24-22.35 146.79-27.8 144.24-31.95 141.24-32.75 135.39-32.6 135.04-19.35ZM144.84-2.75L148.64-6.75 147.94-14.15 144.54-16.55 141.04-17.1 135.04-17.1 135.54-2.25 141.29-2 144.84-2.75ZM166.54-24.95L166.34-20.9 166.54-20.9 169.64-24.45 173.04-25.95 176.79-25 175.94-17.55 174.19-17.9 172.94-23.05 169.69-22 166.14-17.85 165.89-13.15 166.04-8.3 166.24-2.5 171.24-1.5 170.99 0.25 163.74 0 157.64 0.25 157.74-1.5 161.04-2.5 161.29-7.75 161.19-17.35 160.94-22.55 157.39-22.4 157.14-24.15 164.04-25.5 166.54-24.95ZM198.18-19.8L198.23-9.1 198.58-2.05 202.03-1.55 201.68 0.1 194.73 0.7 194.08-2.25 193.83-2.25 188.88 0.7 183.68 0.7 180.18-1.85 179.13-6.75 181.33-10.65 187.33-13.25 193.93-13.5 193.73-19.75 192.78-22.85 188.73-24 183.88-22.85 183.73-17.55 181.78-17.15 180.48-24 186.23-25.7 192.68-26 196.58-24.1 198.18-19.8ZM183.98-6.85L185.33-2.8 189.08-1.85 194.13-4.75 193.93-11.5 189.58-11.5 185.73-9.95 183.98-6.85ZM228.43-8.3L228.83-2.45 232.38-1.5 232.13 0.25 226.23 0 220.13 0.25 220.23-1.5 223.53-2.5 223.88-7.75 223.68-18.65 222.33-21.95 218.08-22.7 212.63-19.9 212.53-18.15 212.23-13.15 212.33-8.3 212.58-2.5 216.23-1.5 215.98 0.25 210.08 0 203.98 0.25 204.08-1.5 207.38-2.5 207.73-7.75 207.28-22.55 203.73-22.4 203.48-24.15 210.38-25.5 212.88-24.95 212.73-22.4 218.08-25.65 223.18-26 227.78-22.85 228.53-18.85 228.43-8.3ZM253.83 0.7L252.88-2.25 252.63-2.25 247.08 1 241.53 0.4 237.88-2.2 234.98-8.15 234.93-16.65 236.83-20.6 242.58-25.25 248.13-26 252.98-24.75 252.68-34.3 248.53-34.7 248.78-36.45 255.68-37.8 257.68-37.25 257.33-17.9 257.68-2.05 261.13-1.55 260.78 0.1 253.83 0.7ZM241.23-4.6L245.53-1.55 252.88-4.35 252.98-22 247.43-23.75 244.28-22.85 240.43-18.75 239.73-13 241.23-4.6ZM264.28-2.65L265.43-4.5 267.73-5.4 270.03-4.45 271.18-2.9 271.63 0.05 270.43 4.9 267.28 8.25 265.98 6.85 268.43 3.95 268.53 0.75 266.28 0.75 264.73-0.55 264.28-2.65ZM304.37-15.8L304.72-6.5 305.12-2.5 309.17-1.5 308.92 0.5 302.32 0 295.62 0.5 295.72-1.5 299.67-2.4 299.92-6.45 300.07-14.55 291.47-29.1 288.47-32.6 284.97-33.5 285.22-35.5 291.77-35 298.77-35.5 298.67-33.5 295.07-32.7 296.52-29.15 300.32-22.7 302.87-17.9 303.07-17.9 305.52-22.25 309.82-29.25 311.12-32.9 307.52-33.5 307.77-35.5 313.42-35 318.77-35.5 318.67-33.5 315.02-32.7 312.47-29.15 304.37-15.8ZM321.97-4.55L320.32-9.5 320.32-16.05 323.27-22 328.92-25.75 335.77-26 342.02-22.25 345.27-16.25 344.67-7.1 340.97-1.2 333.22 1 326.72-0.25 321.97-4.55ZM328.97-23.2L325.82-17.75 325.57-12.15 326.17-6.35 328.32-2.6 333.62-1.3 338.52-3.45 339.97-11.25 339.47-17.75 337.62-21.9 333.97-23.75 328.97-23.2ZM356.62-24.95L356.32-17.25 356.32-6.35 357.67-3.05 361.87-2.5 367.32-5.75 367.32-11.05 367.27-17.3 367.02-22.5 363.47-22.35 363.22-24.1 370.12-25.45 372.62-24.9 372.27-18.1 372.22-14.1 372.32-11.05 372.32-2.05 375.82-1.05 375.57 0.7 368.72 0.7 367.57-3.5 361.92 0.65 356.82 1 352.22-2.15 351.47-6.15 351.52-16.85 351.02-22.55 347.47-22.4 347.22-24.15 354.12-25.5 356.62-24.95ZM386.96-24.95L386.76-20.9 386.96-20.9 390.06-24.45 393.46-25.95 397.21-25 396.36-17.55 394.61-17.9 393.36-23.05 390.11-22 386.56-17.85 386.31-13.15 386.46-8.3 386.66-2.5 391.66-1.5 391.41 0.25 384.16 0 378.06 0.25 378.16-1.5 381.46-2.5 381.71-7.75 381.61-17.35 381.36-22.55 377.81-22.4 377.56-24.15 384.46-25.5 386.96-24.95ZM425.71-14L420.66-14.6 421.16-2.5 426.01-1.5 425.76 0.5 418.66 0 411.81 0.5 411.91-1.5 416.06-2.5 416.41-15.3 416.16-32.5 412.06-33.5 412.31-35.5 418.41-35 425.11-35.55 429.21-35.25 433.26-33.95 437.21-30.95 438.46-25.8 437.56-20.25 434.51-16.75 425.71-14ZM428.31-33.2L421.01-32.75 420.71-16.8 425.11-16.25 431.86-19.1 433.31-24.75 432.26-29.35 428.31-33.2ZM443.16-4.55L441.51-9.5 441.51-16.05 444.46-22 450.11-25.75 456.96-26 463.21-22.25 466.46-16.25 465.86-7.1 462.16-1.2 454.41 1 447.91-0.25 443.16-4.55ZM450.16-23.2L447.01-17.75 446.76-12.15 447.36-6.35 449.51-2.6 454.81-1.3 459.71-3.45 461.16-11.25 460.66-17.75 458.81-21.9 455.16-23.75 450.16-23.2ZM481.35 1.5L474.05-18.2 471.8-22.6 468.45-23.5 468.7-25.25 474.8-25 480.9-25.25 480.8-23.5 477.4-22.5 478.2-19.6 480.9-11.25 482.9-3.95 483.05-3.95 484.4-9.05 488.2-19.8 486.8-22.6 483.45-23.5 483.7-25.25 489.8-25 495.9-25.25 495.8-23.5 492.4-22.5 493.2-19.6 495.6-11.25 497.6-3.95 497.75-3.95 499.1-9.05 502.6-19.45 503.4-22.65 499.5-23.5 499.75-25.25 504.65-25 509.95-25.25 509.85-23.5 506.75-22.5 504.6-17.9 499.25-1.45 497.7 1.15 496.05 1.5 489.65-16.4 484.55-1.45 483 1.15 481.35 1.5ZM525.55-12.9L516.9-13.45 516.85-13 518.2-5.95 522.15-2.05 526.75-1.55 531.45-4.05 532.35-2.75 528.4 0.4 523.7 1 518.8-0.15 514.55-3.7 512-11.2 512.85-17.9 515.45-22.6 520.7-25.5 525.1-26.05 528.6-24.95 531.3-22.5 532.85-18.05 532.9-13.9 532.2-13.35 525.55-12.9ZM523.2-23.8L519.4-21.55 517.45-17.75 517.15-15.5 524.75-15.4 528.2-16.15 527.9-20.8 526.4-23.35 523.2-23.8ZM545-24.95L544.8-20.9 545-20.9 548.1-24.45 551.5-25.95 555.25-25 554.4-17.55 552.65-17.9 551.4-23.05 548.15-22 544.6-17.85 544.35-13.15 544.5-8.3 544.7-2.5 549.7-1.5 549.45 0.25 542.2 0 536.1 0.25 536.2-1.5 539.5-2.5 539.75-7.75 539.65-17.35 539.4-22.55 535.85-22.4 535.6-24.15 542.5-25.5 545-24.95Z" opacity="1" transform="matrix(1,0,0,1,0,0)" fill="black" class="slogan-text-1" id="SvgjsPath3490"></path></svg></g></svg></g></svg></g></svg></g><g transform="matrix(1,0,0,1,0,0.2980559000820051)"><svg viewBox="0 0 109.69388502070689 119.22236003280575" height="119.22236003280575" width="109.69388502070689"><g><svg xmlns="http://www.w3.org/2000/svg" data-name="Layer 1" viewBox="4.93 1.0402409194083329 90.1306310853582 97.95975908059167" x="0" y="0" height="119.22236003280575" width="109.69388502070689" class="icon-icon-0" data-fill-palette-color="accent" id="SvgjsSvg3489"><path d="M54.52 93.52H29.94L24.47 99 4.93 80 18.92 66A21.34 21.34 0 0 1 41 61L44.07 62.08H63A6 6 0 0 1 69 68.22 6.12 6.12 0 0 1 62.76 74H51.4A2.31 2.31 0 0 0 51.4 78.63H62.76A10.8 10.8 0 0 0 73.59 68.41S73.59 68.31 73.59 68.27L84.09 56.45A6.36 6.36 0 0 1 92.82 55.6 6.19 6.19 0 0 1 93.54 64.43L72.54 88.43A14.72 14.72 0 0 1 61.45 93.43ZM81.18 38.78A6 6 0 0 0 81.49 40.7 6 6 0 0 1 75.75 48.61 6 6 0 0 0 70 52.81 6 6 0 0 1 60.71 55.81 6 6 0 0 0 53.56 55.81 6 6 0 0 1 44.27 52.81 6 6 0 0 0 38.48 48.61 6 6 0 0 1 32.74 40.7 6 6 0 0 0 30.53 33.9 6 6 0 0 1 30.53 24.13 6 6 0 0 0 32.74 17.33 6 6 0 0 1 38.48 9.42 6 6 0 0 0 44.27 5.22 6 6 0 0 1 53.56 2.22 6 6 0 0 0 60.71 2.22 6 6 0 0 1 70 5.22 6 6 0 0 0 75.79 9.42 6 6 0 0 1 81.53 17.33 6 6 0 0 0 83.74 24.13 6 6 0 0 1 83.74 33.9 6 6 0 0 0 81.18 38.78M65.4 22.57A3.34 3.34 0 0 0 60.68 22.57L54.89 28.36 53.51 27A3.34 3.34 0 0 0 48.79 31.72L50.17 33.1 52.53 35.46A3.34 3.34 0 0 0 57.25 35.46L59.61 33.1 65.4 27.31A3.34 3.34 0 0 0 65.4 22.57" fill="black"></path></svg></g></svg></g></svg></g><defs><mask></mask></defs><mask><g id="SvgjsG3488"><svg viewBox="0 0 395.52 86.0549099102068" height="86.0549099102068" width="395.52"><g><svg viewBox="0 0 550.7018952065081 119.81847183296976" height="86.0549099102068" width="395.52"><g><rect width="7.29488660410414" height="119.81847183296976" x="128.79044681155543" y="0" fill="black" opacity="1" stroke-width="0" stroke="transparent" fill-opacity="1" class="rect-yte-0" rx="1%" id="SvgjsRect3487" data-palette-color="url(#42bb1cb8-271a-47d5-bcb6-ac1961bf31de)"></rect></g><g transform="matrix(1,0,0,1,155.1818952065081,0.2980559000820051)"><svg viewBox="0 0 395.52 119.22236003280575" height="119.22236003280575" width="395.52"><g id="SvgjsG3486"><svg viewBox="0 0 395.52 119.22236003280575" height="119.22236003280575" width="395.52" id="SvgjsSvg3485"><g><svg viewBox="0 0 395.52 80.89158487456807" height="80.89158487456807" width="395.52"><g transform="matrix(1,0,0,1,0,0)"><svg width="395.52" viewBox="0.809090909090909 -36.4 182.8572248803591 37.4" height="80.89158487456807" data-palette-color="url(#42bb1cb8-271a-47d5-bcb6-ac1961bf31de)"><path d="M9.75-25.05L9.6-21.65 9.65-21.6Q11.95-24 14.35-24.9 16.75-25.8 18.55-25.8L18.55-25.8Q21-25.8 22.7-24.73 24.4-23.65 25.1-21.6L25.1-21.6Q27.25-24 29.35-24.9 31.45-25.8 33.55-25.8L33.55-25.8Q36.8-25.8 38.68-23.95 40.55-22.1 40.55-18.55L40.55-18.55 40.6-2.5 44.1-1.5Q44.25-0.55 43.85 0.25L43.85 0.25Q42.5 0.15 41 0.08 39.5 0 38.1 0L38.1 0Q36.7 0 35.15 0.08 33.6 0.15 32.2 0.25L32.2 0.25Q32.05-0.7 32.3-1.5L32.3-1.5Q33.3-1.7 34.08-1.95 34.85-2.2 35.6-2.5L35.6-2.5 35.6-16.3Q35.6-19.7 34.55-20.95 33.5-22.2 31.2-22.2L31.2-22.2Q30.1-22.2 28.6-21.48 27.1-20.75 25.55-18.95L25.55-18.95 25.55-18.55 25.6-2.5 29.1-1.5Q29.25-0.55 28.85 0.25L28.85 0.25Q27.5 0.15 26 0.08 24.5 0 23.1 0L23.1 0Q21.7 0 20.15 0.08 18.6 0.15 17.2 0.25L17.2 0.25Q17.05-0.7 17.3-1.5L17.3-1.5Q18.3-1.7 19.07-1.95 19.85-2.2 20.6-2.5L20.6-2.5 20.6-16.3Q20.6-19.7 19.55-21 18.5-22.3 16.2-22.3L16.2-22.3Q15-22.3 13.38-21.58 11.75-20.85 10-19.3L10-19.3 10-2.5 13.35-1.5Q13.5-0.55 13.1 0.25L13.1 0.25Q11.75 0.15 10.33 0.08 8.9 0 7.5 0L7.5 0Q6.1 0 4.45 0.08 2.8 0.15 1.4 0.25L1.4 0.25Q1.25-0.7 1.5-1.5L1.5-1.5Q2.4-1.75 3.3-1.98 4.2-2.2 5-2.5L5-2.5 5-22 0.85-22.4Q0.7-23.4 1.1-24.15L1.1-24.15Q2.95-24.45 4.7-24.8 6.45-25.15 8.05-25.5L8.05-25.5Q8.9-25.45 9.75-25.05L9.75-25.05ZM46.35-12.5L46.35-12.5Q46.35-16.4 47.87-19.45 49.4-22.5 52.25-24.25 55.1-26 58.95-26L58.95-26Q62.85-26 65.67-24.25 68.5-22.5 70.02-19.45 71.55-16.4 71.55-12.5L71.55-12.5Q71.55-8.5 70.02-5.45 68.5-2.4 65.67-0.7 62.85 1 58.95 1L58.95 1Q55.1 1 52.25-0.7 49.4-2.4 47.87-5.45 46.35-8.5 46.35-12.5ZM66.15-11.8L66.15-11.8Q66.15-15.15 65.4-17.88 64.65-20.6 63.05-22.23 61.45-23.85 58.85-23.85L58.85-23.85Q56.2-23.85 54.62-22.25 53.05-20.65 52.4-18 51.75-15.35 51.75-12.15L51.75-12.15Q51.75-9.25 52.5-6.73 53.25-4.2 54.87-2.68 56.5-1.15 59.05-1.15L59.05-1.15Q61.75-1.15 63.3-2.65 64.85-4.15 65.5-6.6 66.15-9.05 66.15-11.8ZM83.1-25.05L82.95-21.65 83-21.6Q85.4-24 87.95-24.9 90.5-25.8 92.4-25.8L92.4-25.8Q95.65-25.8 97.52-23.95 99.4-22.1 99.4-18.55L99.4-18.55 99.45-2.5 102.95-1.5Q103.1-0.55 102.7 0.25L102.7 0.25Q101.35 0.15 99.85 0.08 98.35 0 96.95 0L96.95 0Q95.55 0 94 0.08 92.45 0.15 91.05 0.25L91.05 0.25Q90.9-0.7 91.15-1.5L91.15-1.5Q92.15-1.7 92.92-1.95 93.7-2.2 94.45-2.5L94.45-2.5 94.45-16.3Q94.45-19.7 93.4-21 92.35-22.3 90.05-22.3L90.05-22.3Q88.2-22.3 86.45-21.58 84.7-20.85 83.35-19.3L83.35-19.3 83.35-2.5 86.7-1.5Q86.85-0.55 86.45 0.25L86.45 0.25Q85.1 0.15 83.67 0.08 82.25 0 80.85 0L80.85 0Q79.45 0 77.8 0.08 76.15 0.15 74.75 0.25L74.75 0.25Q74.6-0.7 74.85-1.5L74.85-1.5Q75.75-1.75 76.65-1.98 77.55-2.2 78.35-2.5L78.35-2.5 78.35-22 74.2-22.4Q74.05-23.4 74.45-24.15L74.45-24.15Q76.3-24.45 78.05-24.8 79.8-25.15 81.4-25.5L81.4-25.5Q82.25-25.45 83.1-25.05L83.1-25.05ZM113.69-24.95L113.69-2.5 117.04-1.5Q117.19-0.55 116.79 0.25L116.79 0.25Q115.44 0.15 114.02 0.08 112.59 0 111.19 0L111.19 0Q109.79 0 108.14 0.08 106.49 0.15 105.09 0.25L105.09 0.25Q104.94-0.7 105.19-1.5L105.19-1.5Q106.14-1.75 107.07-1.95 107.99-2.15 108.69-2.5L108.69-2.5 108.69-22 104.54-22.4Q104.39-23.4 104.79-24.15L104.79-24.15Q106.59-24.4 108.42-24.75 110.24-25.1 111.79-25.5L111.79-25.5Q112.29-25.45 112.74-25.33 113.19-25.2 113.69-24.95L113.69-24.95ZM110.34-30.05L110.34-30.05Q109.49-30.05 108.79-30.6 108.09-31.15 107.69-31.95 107.29-32.75 107.29-33.45L107.29-33.45Q107.29-34.1 107.84-34.77 108.39-35.45 109.22-35.93 110.04-36.4 110.84-36.4L110.84-36.4Q111.74-36.4 112.44-35.83 113.14-35.25 113.52-34.48 113.89-33.7 113.89-33L113.89-33Q113.89-32.35 113.37-31.65 112.84-30.95 112.02-30.5 111.19-30.05 110.34-30.05ZM128.14 0.8L128.14 0.8Q126.54 0.8 125.24 0.2 123.94-0.4 123.22-1.88 122.49-3.35 122.49-5.95L122.49-5.95 122.49-21.9 118.99-21.9Q118.69-22.45 118.67-23.03 118.64-23.6 118.74-24.15L118.74-24.15Q120.84-24.15 121.89-24.7 122.94-25.25 123.52-26.6 124.09-27.95 124.74-30.25L124.74-30.25 127.39-30.25 127.39-24.65 132.64-24.65Q133.34-23.2 132.64-21.9L132.64-21.9 127.39-21.9 127.39-7.2Q127.39-4.9 127.62-3.73 127.84-2.55 128.39-2.13 128.94-1.7 129.89-1.7L129.89-1.7Q130.69-1.7 131.44-2 132.19-2.3 132.89-2.7L132.89-2.7Q133.59-2.25 133.64-1.2L133.64-1.2Q133.09-0.55 131.64 0.13 130.19 0.8 128.14 0.8ZM135.94-12.5L135.94-12.5Q135.94-16.4 137.46-19.45 138.99-22.5 141.84-24.25 144.69-26 148.54-26L148.54-26Q152.44-26 155.26-24.25 158.09-22.5 159.61-19.45 161.14-16.4 161.14-12.5L161.14-12.5Q161.14-8.5 159.61-5.45 158.09-2.4 155.26-0.7 152.44 1 148.54 1L148.54 1Q144.69 1 141.84-0.7 138.99-2.4 137.46-5.45 135.94-8.5 135.94-12.5ZM155.74-11.8L155.74-11.8Q155.74-15.15 154.99-17.88 154.24-20.6 152.64-22.23 151.04-23.85 148.44-23.85L148.44-23.85Q145.79-23.85 144.21-22.25 142.64-20.65 141.99-18 141.34-15.35 141.34-12.15L141.34-12.15Q141.34-9.25 142.09-6.73 142.84-4.2 144.46-2.68 146.09-1.15 148.64-1.15L148.64-1.15Q151.34-1.15 152.89-2.65 154.44-4.15 155.09-6.6 155.74-9.05 155.74-11.8ZM172.94-16.85L172.94-2.5 177.79-1.5Q177.94-0.55 177.54 0.25L177.54 0.25Q176.64 0.2 175.31 0.15 173.99 0.1 172.69 0.05 171.39 0 170.44 0L170.44 0Q169.04 0 167.39 0.08 165.74 0.15 164.34 0.25L164.34 0.25Q164.19-0.7 164.44-1.5L164.44-1.5Q165.39-1.75 166.31-1.95 167.24-2.15 167.94-2.5L167.94-2.5 167.94-22 163.79-22.4Q163.64-23.4 164.04-24.15L164.04-24.15Q165.84-24.4 167.66-24.75 169.49-25.1 171.04-25.5L171.04-25.5Q171.54-25.45 171.86-25.33 172.19-25.2 172.69-24.95L172.69-24.95 172.69-20.4 172.74-20.35Q174.29-22.65 176.21-24.25 178.14-25.85 180.34-25.85L180.34-25.85Q181.19-25.85 182.01-25.73 182.84-25.6 183.64-25.1L183.64-25.1Q183.74-23.05 183.46-21.2 183.19-19.35 182.64-17.6L182.64-17.6Q182.29-17.55 181.54-17.57 180.79-17.6 180.39-17.8L180.39-17.8 179.69-22.8Q177.94-22.8 176.16-21.53 174.39-20.25 172.94-16.85L172.94-16.85Z" opacity="1" transform="matrix(1,0,0,1,0,0)" fill="black" class="wordmark-text-0" id="SvgjsPath3484"></path></svg></g></svg></g><g transform="matrix(1,0,0,1,0,99.9881466654166)"><svg viewBox="0 0 232.209792 19.234213367389152" height="19.234213367389152" width="232.209792"><g transform="matrix(1,0,0,1,0,0)"><svg width="232.209792" viewBox="-0.65 -37.8 555.9 46.05" height="19.234213367389152" data-palette-color="url(#54d8f1ae-13b4-499e-8e79-e5a2098bfde9)"><path d="M18.75-15.8L19.1-6.5 19.5-2.5 23.55-1.5 23.3 0.5 16.7 0 10 0.5 10.1-1.5 14.05-2.4 14.3-6.45 14.45-14.55 5.85-29.1 2.85-32.6-0.65-33.5-0.4-35.5 6.15-35 13.15-35.5 13.05-33.5 9.45-32.7 10.9-29.15 14.7-22.7 17.25-17.9 17.45-17.9 19.9-22.25 24.2-29.25 25.5-32.9 21.9-33.5 22.15-35.5 27.8-35 33.15-35.5 33.05-33.5 29.4-32.7 26.85-29.15 18.75-15.8ZM36.35-4.55L34.7-9.5 34.7-16.05 37.65-22 43.3-25.75 50.15-26 56.4-22.25 59.65-16.25 59.05-7.1 55.35-1.2 47.6 1 41.1-0.25 36.35-4.55ZM43.35-23.2L40.2-17.75 39.95-12.15 40.55-6.35 42.7-2.6 48-1.3 52.9-3.45 54.35-11.25 53.85-17.75 52-21.9 48.35-23.75 43.35-23.2ZM71-24.95L70.7-17.25 70.7-6.35 72.05-3.05 76.25-2.5 81.7-5.75 81.7-11.05 81.65-17.3 81.4-22.5 77.84-22.35 77.59-24.1 84.5-25.45 87-24.9 86.65-18.1 86.59-14.1 86.7-11.05 86.7-2.05 90.2-1.05 89.95 0.7 83.09 0.7 81.95-3.5 76.3 0.65 71.2 1 66.59-2.15 65.84-6.15 65.89-16.85 65.39-22.55 61.84-22.4 61.59-24.15 68.5-25.5 71-24.95ZM101.34-24.95L101.14-20.9 101.34-20.9 104.44-24.45 107.84-25.95 111.59-25 110.74-17.55 108.99-17.9 107.74-23.05 104.49-22 100.94-17.85 100.69-13.15 100.84-8.3 101.04-2.5 106.04-1.5 105.79 0.25 98.54 0 92.44 0.25 92.54-1.5 95.84-2.5 96.09-7.75 95.99-17.35 95.74-22.55 92.19-22.4 91.94-24.15 98.84-25.5 101.34-24.95ZM132.79-35L141.29-35 147.09-34.25 151.79-29.5 151.79-24.8 149.09-20.75 144.39-18.8 144.39-18.7 149.49-17.6 153.19-13.8 154.14-10.2 152.24-3.55 147.24-0.65 141.09 0.25 133.04 0 126.19 0.5 126.29-1.25 130.29-2.5 130.79-17.85 130.29-32.5 126.19-33.7 126.44-35.45 132.79-35ZM135.04-19.35L141.04-19.6 146.24-22.35 146.79-27.8 144.24-31.95 141.24-32.75 135.39-32.6 135.04-19.35ZM144.84-2.75L148.64-6.75 147.94-14.15 144.54-16.55 141.04-17.1 135.04-17.1 135.54-2.25 141.29-2 144.84-2.75ZM166.54-24.95L166.34-20.9 166.54-20.9 169.64-24.45 173.04-25.95 176.79-25 175.94-17.55 174.19-17.9 172.94-23.05 169.69-22 166.14-17.85 165.89-13.15 166.04-8.3 166.24-2.5 171.24-1.5 170.99 0.25 163.74 0 157.64 0.25 157.74-1.5 161.04-2.5 161.29-7.75 161.19-17.35 160.94-22.55 157.39-22.4 157.14-24.15 164.04-25.5 166.54-24.95ZM198.18-19.8L198.23-9.1 198.58-2.05 202.03-1.55 201.68 0.1 194.73 0.7 194.08-2.25 193.83-2.25 188.88 0.7 183.68 0.7 180.18-1.85 179.13-6.75 181.33-10.65 187.33-13.25 193.93-13.5 193.73-19.75 192.78-22.85 188.73-24 183.88-22.85 183.73-17.55 181.78-17.15 180.48-24 186.23-25.7 192.68-26 196.58-24.1 198.18-19.8ZM183.98-6.85L185.33-2.8 189.08-1.85 194.13-4.75 193.93-11.5 189.58-11.5 185.73-9.95 183.98-6.85ZM228.43-8.3L228.83-2.45 232.38-1.5 232.13 0.25 226.23 0 220.13 0.25 220.23-1.5 223.53-2.5 223.88-7.75 223.68-18.65 222.33-21.95 218.08-22.7 212.63-19.9 212.53-18.15 212.23-13.15 212.33-8.3 212.58-2.5 216.23-1.5 215.98 0.25 210.08 0 203.98 0.25 204.08-1.5 207.38-2.5 207.73-7.75 207.28-22.55 203.73-22.4 203.48-24.15 210.38-25.5 212.88-24.95 212.73-22.4 218.08-25.65 223.18-26 227.78-22.85 228.53-18.85 228.43-8.3ZM253.83 0.7L252.88-2.25 252.63-2.25 247.08 1 241.53 0.4 237.88-2.2 234.98-8.15 234.93-16.65 236.83-20.6 242.58-25.25 248.13-26 252.98-24.75 252.68-34.3 248.53-34.7 248.78-36.45 255.68-37.8 257.68-37.25 257.33-17.9 257.68-2.05 261.13-1.55 260.78 0.1 253.83 0.7ZM241.23-4.6L245.53-1.55 252.88-4.35 252.98-22 247.43-23.75 244.28-22.85 240.43-18.75 239.73-13 241.23-4.6ZM264.28-2.65L265.43-4.5 267.73-5.4 270.03-4.45 271.18-2.9 271.63 0.05 270.43 4.9 267.28 8.25 265.98 6.85 268.43 3.95 268.53 0.75 266.28 0.75 264.73-0.55 264.28-2.65ZM304.37-15.8L304.72-6.5 305.12-2.5 309.17-1.5 308.92 0.5 302.32 0 295.62 0.5 295.72-1.5 299.67-2.4 299.92-6.45 300.07-14.55 291.47-29.1 288.47-32.6 284.97-33.5 285.22-35.5 291.77-35 298.77-35.5 298.67-33.5 295.07-32.7 296.52-29.15 300.32-22.7 302.87-17.9 303.07-17.9 305.52-22.25 309.82-29.25 311.12-32.9 307.52-33.5 307.77-35.5 313.42-35 318.77-35.5 318.67-33.5 315.02-32.7 312.47-29.15 304.37-15.8ZM321.97-4.55L320.32-9.5 320.32-16.05 323.27-22 328.92-25.75 335.77-26 342.02-22.25 345.27-16.25 344.67-7.1 340.97-1.2 333.22 1 326.72-0.25 321.97-4.55ZM328.97-23.2L325.82-17.75 325.57-12.15 326.17-6.35 328.32-2.6 333.62-1.3 338.52-3.45 339.97-11.25 339.47-17.75 337.62-21.9 333.97-23.75 328.97-23.2ZM356.62-24.95L356.32-17.25 356.32-6.35 357.67-3.05 361.87-2.5 367.32-5.75 367.32-11.05 367.27-17.3 367.02-22.5 363.47-22.35 363.22-24.1 370.12-25.45 372.62-24.9 372.27-18.1 372.22-14.1 372.32-11.05 372.32-2.05 375.82-1.05 375.57 0.7 368.72 0.7 367.57-3.5 361.92 0.65 356.82 1 352.22-2.15 351.47-6.15 351.52-16.85 351.02-22.55 347.47-22.4 347.22-24.15 354.12-25.5 356.62-24.95ZM386.96-24.95L386.76-20.9 386.96-20.9 390.06-24.45 393.46-25.95 397.21-25 396.36-17.55 394.61-17.9 393.36-23.05 390.11-22 386.56-17.85 386.31-13.15 386.46-8.3 386.66-2.5 391.66-1.5 391.41 0.25 384.16 0 378.06 0.25 378.16-1.5 381.46-2.5 381.71-7.75 381.61-17.35 381.36-22.55 377.81-22.4 377.56-24.15 384.46-25.5 386.96-24.95ZM425.71-14L420.66-14.6 421.16-2.5 426.01-1.5 425.76 0.5 418.66 0 411.81 0.5 411.91-1.5 416.06-2.5 416.41-15.3 416.16-32.5 412.06-33.5 412.31-35.5 418.41-35 425.11-35.55 429.21-35.25 433.26-33.95 437.21-30.95 438.46-25.8 437.56-20.25 434.51-16.75 425.71-14ZM428.31-33.2L421.01-32.75 420.71-16.8 425.11-16.25 431.86-19.1 433.31-24.75 432.26-29.35 428.31-33.2ZM443.16-4.55L441.51-9.5 441.51-16.05 444.46-22 450.11-25.75 456.96-26 463.21-22.25 466.46-16.25 465.86-7.1 462.16-1.2 454.41 1 447.91-0.25 443.16-4.55ZM450.16-23.2L447.01-17.75 446.76-12.15 447.36-6.35 449.51-2.6 454.81-1.3 459.71-3.45 461.16-11.25 460.66-17.75 458.81-21.9 455.16-23.75 450.16-23.2ZM481.35 1.5L474.05-18.2 471.8-22.6 468.45-23.5 468.7-25.25 474.8-25 480.9-25.25 480.8-23.5 477.4-22.5 478.2-19.6 480.9-11.25 482.9-3.95 483.05-3.95 484.4-9.05 488.2-19.8 486.8-22.6 483.45-23.5 483.7-25.25 489.8-25 495.9-25.25 495.8-23.5 492.4-22.5 493.2-19.6 495.6-11.25 497.6-3.95 497.75-3.95 499.1-9.05 502.6-19.45 503.4-22.65 499.5-23.5 499.75-25.25 504.65-25 509.95-25.25 509.85-23.5 506.75-22.5 504.6-17.9 499.25-1.45 497.7 1.15 496.05 1.5 489.65-16.4 484.55-1.45 483 1.15 481.35 1.5ZM525.55-12.9L516.9-13.45 516.85-13 518.2-5.95 522.15-2.05 526.75-1.55 531.45-4.05 532.35-2.75 528.4 0.4 523.7 1 518.8-0.15 514.55-3.7 512-11.2 512.85-17.9 515.45-22.6 520.7-25.5 525.1-26.05 528.6-24.95 531.3-22.5 532.85-18.05 532.9-13.9 532.2-13.35 525.55-12.9ZM523.2-23.8L519.4-21.55 517.45-17.75 517.15-15.5 524.75-15.4 528.2-16.15 527.9-20.8 526.4-23.35 523.2-23.8ZM545-24.95L544.8-20.9 545-20.9 548.1-24.45 551.5-25.95 555.25-25 554.4-17.55 552.65-17.9 551.4-23.05 548.15-22 544.6-17.85 544.35-13.15 544.5-8.3 544.7-2.5 549.7-1.5 549.45 0.25 542.2 0 536.1 0.25 536.2-1.5 539.5-2.5 539.75-7.75 539.65-17.35 539.4-22.55 535.85-22.4 535.6-24.15 542.5-25.5 545-24.95Z" opacity="1" transform="matrix(1,0,0,1,0,0)" fill="black" class="slogan-text-1" id="SvgjsPath3483"></path></svg></g></svg></g></svg></g></svg></g><g transform="matrix(1,0,0,1,0,0.2980559000820051)"><svg viewBox="0 0 109.69388502070689 119.22236003280575" height="119.22236003280575" width="109.69388502070689"><g><svg xmlns="http://www.w3.org/2000/svg" data-name="Layer 1" viewBox="4.93 1.0402409194083329 90.1306310853582 97.95975908059167" x="0" y="0" height="119.22236003280575" width="109.69388502070689" class="icon-icon-0" data-fill-palette-color="accent" id="SvgjsSvg3482"><path d="M54.52 93.52H29.94L24.47 99 4.93 80 18.92 66A21.34 21.34 0 0 1 41 61L44.07 62.08H63A6 6 0 0 1 69 68.22 6.12 6.12 0 0 1 62.76 74H51.4A2.31 2.31 0 0 0 51.4 78.63H62.76A10.8 10.8 0 0 0 73.59 68.41S73.59 68.31 73.59 68.27L84.09 56.45A6.36 6.36 0 0 1 92.82 55.6 6.19 6.19 0 0 1 93.54 64.43L72.54 88.43A14.72 14.72 0 0 1 61.45 93.43ZM81.18 38.78A6 6 0 0 0 81.49 40.7 6 6 0 0 1 75.75 48.61 6 6 0 0 0 70 52.81 6 6 0 0 1 60.71 55.81 6 6 0 0 0 53.56 55.81 6 6 0 0 1 44.27 52.81 6 6 0 0 0 38.48 48.61 6 6 0 0 1 32.74 40.7 6 6 0 0 0 30.53 33.9 6 6 0 0 1 30.53 24.13 6 6 0 0 0 32.74 17.33 6 6 0 0 1 38.48 9.42 6 6 0 0 0 44.27 5.22 6 6 0 0 1 53.56 2.22 6 6 0 0 0 60.71 2.22 6 6 0 0 1 70 5.22 6 6 0 0 0 75.79 9.42 6 6 0 0 1 81.53 17.33 6 6 0 0 0 83.74 24.13 6 6 0 0 1 83.74 33.9 6 6 0 0 0 81.18 38.78M65.4 22.57A3.34 3.34 0 0 0 60.68 22.57L54.89 28.36 53.51 27A3.34 3.34 0 0 0 48.79 31.72L50.17 33.1 52.53 35.46A3.34 3.34 0 0 0 57.25 35.46L59.61 33.1 65.4 27.31A3.34 3.34 0 0 0 65.4 22.57" fill="black"></path></svg></g></svg></g></svg></g><defs><mask></mask></defs></svg><rect width="395.52" height="86.0549099102068" fill="black" stroke="none" visibility="hidden"></rect></g></mask></svg><rect width="395.52" height="86.0549099102068" fill="black" stroke="none" visibility="hidden"></rect></g></mask></svg><rect width="395.52" height="86.0549099102068" fill="black" stroke="none" visibility="hidden"></rect></g></mask><linearGradient x1="0.054" x2="0.941" y1="0.5" y2="0.5" id="997780ed-6248-433d-b253-1f257f058d06"><stop stop-color="#8c8c8c" offset="0"></stop><stop stop-color="#e3e4e5" offset="0.498"></stop><stop stop-color="#8c8c8c" offset="1"></stop></linearGradient><rect width="395.52" height="86.0549099102068" fill="url(#997780ed-6248-433d-b253-1f257f058d06)" mask="url(#01a1aea9-d2d4-449f-93dd-571baa21cf19)" data-fill-palette-color="accent"></rect></svg><rect width="395.52" height="86.0549099102068" fill="none" stroke="none" visibility="hidden"></rect></g></svg></g></svg>